<svg height="512" viewBox="0 0 58 58" width="512" xmlns="http://www.w3.org/2000/svg"><g id="023---Avocado" fill="none" transform="translate(0 -1)"><path id="Shape" d="m28.94 5.32c-2.23-2.78-4.94-4.32-7.94-4.32-6.35 0-11.67 7.05-13.16 18.25-.25006864 1.6827074-1.01917157 3.2453847-2.2 4.47-5.37790916 5.7958309-7.04464518 14.1210644-4.31248201 21.5405554s9.40009431 12.6755557 17.25248201 13.5994446c3.5169061.403577 7.0788701-.0812077 10.36-1.41z" fill="#4c8056"/><g fill="#fff"><path id="Shape" d="m8 28.08c-.3864607-.0032255-.73646739-.2288521-.89896471-.5795042s-.10839222-.76355.13896471-1.0604958c.19-.23.39-.45.59-.67 1.61837311-1.6779757 2.667907-3.8225234 3-6.13.3640918-2.9367849 1.1278248-5.8100359 2.27-8.54.1072815-.2427867.3066867-.4329607.5542822-.5286226.2475954-.0956619.5230654-.0889623.7657178.0186226.2445777.1054088.4370041.3040253.534619.5518168.0976148.2477915.092353.5242851-.014619.7681832-1.0781948 2.5541006-1.7918496 5.2471376-2.12 8-.3926066 2.7154706-1.6191312 5.2419015-3.51 7.23-.18.19-.36.39-.53.59-.19451111.2275286-.48072023.3559558-.78.35z"/><path id="Shape" d="m16.88 8c-.2623399-.00110462-.5137394-.10525584-.7-.29-.3877236-.39003745-.3877236-1.01996255 0-1.41.3998319-.41438113.8385095-.78943376 1.31-1.12.2921707-.22648815.6854584-.27331309 1.0226393-.12175572.3371808.15155738.5632435.47677031.5878153.84562912.0245718.3688588-.1563561.72118373-.4704546.9161266-.3612101.26004973-.6961359.55478444-1 .88-.1966917.20101508-.468937.30991323-.75.3z"/><path id="Shape" d="m6 43c-.55228475 0-1-.4477153-1-1s.44771525-1 1-1 1 .4477153 1 1-.44771525 1-1 1z"/><path id="Shape" d="m11.64 46.08c-.5522847 0-1-.4477153-1-1s.4477153-1 1-1 1 .4477153 1 1-.4477153 1-1 1z"/><path id="Shape" d="m14 52c-.5522847 0-1-.4477153-1-1s.4477153-1 1-1 1 .4477153 1 1-.4477153 1-1 1z"/></g><path id="Shape" d="m52.31 23.67c-1.1475213-1.1887686-1.8956053-2.7059109-2.14-4.34-1.48-11.25-6.8-18.33-13.17-18.33-.1531712-.00997287-.3068288-.00997287-.46 0-6.15.33-11.25 7.3-12.7 18.23-.2500686 1.6827074-1.0191716 3.2453847-2.2 4.47-5.3897844 5.7949898-7.0639482 14.1279539-4.330575 21.5549556 2.7333732 7.4270018 9.4100319 12.6865972 17.270575 13.6050444.6640215.0759618 1.3316596.1160201 2 .12 8.4230179.1457603 16.1178976-4.756083 19.5459929-12.4513178 3.4280953-7.6952349 1.9258126-16.6942563-3.8159929-22.8586822zm-15.77 31.33c-.5 0-1-.05-1.52-.1-6.3536041-.7551608-11.7450859-5.0138053-13.95115-11.0197885s-.8530297-12.7419632 3.50115-17.4302115c1.7494737-1.8296107 2.8794188-4.1629646 3.23-6.67 1.12-8.39 4.67-14.34 8.74-14.78z" fill="#24ae5f"/><path id="Shape" d="m24.57 26.45c-4.3472113 4.6859067-5.6985601 11.4142543-3.4977581 17.4152907s7.5817514 10.2604012 13.9277581 11.0247093c.51 0 1 .09 1.52.1v4c-.6683404-.0039799-1.3359785-.0440382-2-.12-7.8458888-.9405508-14.4995962-6.2058586-17.2183677-13.6254872-2.7187714-7.4196286-1.0422926-15.7373631 4.3383677-21.5245128 1.1808284-1.2246153 1.9499314-2.7872926 2.2-4.47 1.45-10.93 6.55-17.9 12.7-18.25v4c-4.07.41-7.62 6.36-8.74 14.75-.3445392 2.5176613-1.4748932 4.8623585-3.23 6.7z" fill="#4fba6f"/><path id="Shape" d="m36.54 5v50c-.5 0-1-.05-1.52-.1-6.3536041-.7551608-11.7450859-5.0138053-13.95115-11.0197885s-.8530297-12.7419632 3.50115-17.4302115c1.7494737-1.8296107 2.8794188-4.1629646 3.23-6.67 1.12-8.39 4.67-14.34 8.74-14.78z" fill="#f3d55b"/><path id="Shape" d="m54 38c0 9.3888407-7.6111593 17-17 17h-.46v-50c.1531721-.00994472.3068279-.00994472.46 0 4.27 0 8.06 6.11 9.21 14.85.3438085 2.4686992 1.4605167 4.7651274 3.19 6.56 2.9563827 3.1346293 4.6021157 7.2811608 4.6 11.59z" fill="#f0c419"/><path id="Shape" d="m44 39c0 4.42-3.13 8-7 8s-7-3.58-7-8 3.13-11 7-11 7 6.58 7 11z" fill="#805333"/><path id="Shape" d="m34 40c-.5522847 0-1-.4477153-1-1 0-3.38 2.14-7.08 3.52-7.84.3143937-.1786328.700205-.1759693 1.0121024.0069873.3118974.1829565.5024963.5184107.5.88-.0024964.3615893-.1977087.6943799-.5121024.8730127-.64.33-2.52 3.31-2.52 6.08 0 .5522847-.4477153 1-1 1z" fill="#a56a43"/></g></svg>