<svg height="512pt" viewBox="0 0 512 512.0001" width="512pt" xmlns="http://www.w3.org/2000/svg"><path d="m450.894531 136.96875v93.277344h-389.910156v-93.277344c0-42.292969 35.09375-77.683594 77.386719-74.984375 7.796875-21.59375 33.289062-37.390625 56.085937-29.890625 13.792969-19.796875 36.589844-32.09375 61.484375-32.09375 24.894532 0 47.691406 12.296875 61.484375 32.09375 22.496094-7.5 48.289063 8.296875 56.089844 29.890625 41.988281-2.398437 77.378906 32.691406 77.378906 74.984375zm0 0" fill="#56c225"/><path d="m450.894531 136.96875v93.277344h-194.953125v-230.246094c24.894532 0 47.691406 12.296875 61.484375 32.09375 22.496094-7.5 48.289063 8.296875 56.089844 29.890625 41.988281-2.398437 77.378906 32.691406 77.378906 74.984375zm0 0" fill="#49a520"/><path d="m511.882812 181.957031c0-32.992187-27.996093-59.984375-60.988281-59.984375-12.59375 0-24.894531 4.199219-35.089843 11.695313-11.996094-7.496094-25.792969-11.695313-39.890626-11.695313-35.691406 0-65.683593 25.191406-73.183593 59.984375-10.199219-.300781-20.394531 1.199219-30.59375 4.5-5.699219 1.796875-11.097657 4.199219-16.195313 7.199219l-9.101562 187.324219 44.492187 130c37.492188-4.199219 70.484375-26.390625 88.179688-59.984375 20.394531 3 45.890625-.898438 75.582031-30.59375 27.792969-28.285156 33.855469-66.398438 17.496094-97.476563 23.996094-12.898437 39.292968-37.789062 39.292968-65.984375 0-14.097656-4.199218-27.894531-11.699218-39.890625 7.5-10.199219 11.699218-22.496093 11.699218-35.09375zm0 0" fill="#56c225"/><path d="m449.316406 250.234375c-3.707031-7.410156-12.726562-10.398437-20.125-6.707031l-38.28125 19.140625v-65.714844c0-8.289063-6.707031-14.996094-14.996094-14.996094-8.289062 0-14.996093 6.707031-14.996093 14.996094v87.730469c-4.160157 16.324218-9.617188 32.148437-16.101563 47.5l-16.574218-23.824219c-4.730469-6.792969-14.085938-8.464844-20.882813-3.75-6.796875 4.730469-8.480469 14.074219-3.75 20.886719l25.957031 37.316406c-17.085937 31.074219-38.601562 59.636719-64.96875 84.089844-6.078125 5.640625-6.429687 15.113281-.808594 21.191406 5.636719 6.082031 15.136719 6.433594 21.191407.804688 26.230469-24.320313 48.492187-52.132813 66.339843-82.539063l53.046876 5.476563c8.875.742187 15.648437-5.609376 16.460937-13.382813.851563-8.230469-5.140625-15.597656-13.386719-16.460937l-41.167968-4.253907c9.128906-19.3125 16.5625-39.46875 22.207031-60.316406l54.125-27.066406c7.410156-3.703125 10.414062-12.710938 6.710937-20.121094zm0 0" fill="#49a520"/><path d="m266.738281 375.710938 32.394531 112.175781-17.996093 23.695312-.300781.300781h-47.089844c-4.5 0-8.996094-.300781-13.195313-.902343-.300781 0-.300781 0-.601562-.300781-37.191407-3.898438-69.882813-26.390626-87.578125-59.683594-20.394532 3-45.890625-.898438-75.585938-30.59375-16.792968-17.09375-27.09375-38.992188-26.792968-60.285156.300781-13.195313 4.300781-25.796876 10.296874-37.191407-23.992187-12.898437-40.289062-37.792969-40.289062-65.984375 0-14.097656 4.199219-27.894531 11.699219-39.890625-7.5-10.199219-11.699219-22.496093-11.699219-35.09375 0-32.992187 27.996094-59.984375 60.984375-59.984375 12.597656 0 24.898437 4.199219 35.09375 11.695313 11.996094-7.496094 25.792969-11.695313 39.890625-11.695313 36.292969 0 66.582031 25.792969 73.484375 59.984375 9.898437-.300781 20.394531 1.199219 30.292969 4.5 5.699218 1.796875 11.097656 4.199219 16.195312 7.199219 19.792969 11.394531 35.089844 29.992188 41.390625 52.1875 8.695313 30.59375 2.097657 61.488281-18.296875 84.878906-11.996094 13.796875-16.496094 29.992188-12.296875 44.988282zm0 0" fill="#90e36a"/><path d="m266.738281 375.710938 32.394531 112.175781-17.996093 23.695312-.300781.300781h-24.894532v-318.226562c19.792969 11.394531 35.089844 29.992188 41.390625 52.1875 8.695313 30.589844 2.097657 61.484375-18.296875 84.878906-11.996094 13.796875-16.496094 29.992188-12.296875 44.988282zm0 0" fill="#70da40"/><path d="m297.933594 505.882812c-1.800782 2.402344-3.898438 3.898438-6.601563 5.097657-4.199219 1.5-6.597656.902343-10.496093.902343 0 0-.300782 0-.300782-.300781-8.398437-6-16.496094-12-24.59375-18.296875-13.496094-10.796875-26.992187-22.195312-40.191406-35.390625-19.195312-19.195312-37.492188-42.292969-54.886719-71.683593l-53.386719 5.699218c-9 .597656-15.597656-5.699218-16.496093-13.496094-.902344-8.101562 5.097656-15.597656 13.496093-16.496093l41.390626-4.199219c-9.296876-19.195312-16.796876-39.59375-22.496094-60.289062l-53.988282-26.992188c-7.496093-3.898438-10.496093-12.898438-6.898437-20.09375 3.898437-7.5 12.898437-10.496094 20.09375-6.898438l38.394531 19.195313v-65.6875c0-8.398437 6.597656-14.996094 14.996094-14.996094s14.996094 6.597657 14.996094 14.996094v87.882813c4.199218 16.195312 9.597656 32.089843 16.195312 47.386718l16.496094-23.992187c4.796875-6.597657 14.097656-8.398438 20.996094-3.601563 6.597656 4.800782 8.398437 14.097656 3.597656 20.996094l-26.09375 37.492188c12 21.59375 24.894531 39.890624 38.390625 55.488281 11.398437 13.195312 23.097656 24.890625 35.394531 35.390625 14.09375 12.296875 28.492188 23.394531 43.1875 33.890625.300782 3 4.503906 10.5-1.195312 17.996093zm0 0" fill="#56c225"/><path d="m297.933594 505.882812c-1.800782 2.402344-3.898438 3.898438-6.601563 5.097657-4.199219 1.5-6.597656.902343-10.496093.902343 0 0-.300782 0-.300782-.300781-8.398437-6-16.496094-12-24.59375-18.296875v-39.289062c14.097656 12.296875 28.492188 23.394531 43.191406 33.890625.296876 3 4.5 10.5-1.199218 17.996093zm0 0" fill="#49a520"/></svg>