<svg id="Capa_1" enable-background="new 0 0 512 512" height="512" viewBox="0 0 512 512" width="512" xmlns="http://www.w3.org/2000/svg"><g><g><path clip-rule="evenodd" d="m408.895 142.705c-12.692 122.192-109.407 233.934-221.539 256.015-4.453.878-9.208 1.302-13.994 1.666-1.817-2.484.878 37.833-42.345 51.312 4.301 8.421 11.843 14.873 21.203 16.993 234.291 36.773 410.971-94.87 337.246-355.368-5.967.727-34.985-3.786-43.133-4.725l-36.893 11.813c0 7.573.182 15.327-.545 22.294z" fill="#fde588" fill-rule="evenodd"/></g><g><path clip-rule="evenodd" d="m468.323 115.201c51.371 231.056-103.349 351.794-313.953 331.409-5.846 3.211-13.449 5.18-23.353 5.089 4.301 8.421 11.843 14.873 21.203 16.993 234.291 36.773 410.971-94.87 337.246-355.368-.454.03-.878.091-1.333.121z" fill="#fdd76f" fill-rule="evenodd"/></g><g><path clip-rule="evenodd" d="m406.956 122.865c.273-.727.606-1.515.909-2.302l-2.029-3.15-.424 3.362c-49.978 59.157-151.509 108.289-242.742 98.626-41.376-4.392-62.336-17.205-96.715-36.924-7.179-4.12-14.357-8.693-21.718-11.389-3.695 2.12-5.18 48.495-41.891 45.618 1.363 3.362 3.302 6.512 5.876 9.269 26.261 31.32 53.885 56.401 82.176 75.333 132.76 45.282 269.518-50.86 316.558-178.443z" fill="#fde588" fill-rule="evenodd"/></g><g><path clip-rule="evenodd" d="m408.895 142.705c.727-6.967.545-14.721.545-22.294l-.969-1.605-.606 1.757c-.303.788-.606 1.575-.909 2.302-46.858 113.559-178.921 193.647-292.72 182.985-7.663-.727-15.811-2.968-23.838-4.544-2.847-.576-5.664-1.03-8.451-1.333.788-1.302-7.724 49.283-36.014 43.8 2.272 8.027 7.36 15.024 14.751 19.174 29.108 18.326 57.762 32.108 85.599 41.619 166.502 16.297 252.343-52.432 262.612-261.861z" fill="#fde588" fill-rule="evenodd"/></g><g><path clip-rule="evenodd" d="m187.356 398.72c112.132-22.082 208.847-133.824 221.539-256.015.727-6.967.545-14.721.545-22.294-5.604 109.5-178.8 257.5-285.056 265.193-6.512.485-13.146.818-19.264 2.029 13.873 6.664 27.624 12.298 41.164 16.932 8.057-3.09 17.689-3.514 27.079-4.18 4.785-.362 9.54-.786 13.993-1.665z" fill="#fdd76f" fill-rule="evenodd"/></g><g><path clip-rule="evenodd" d="m114.236 305.85c113.798 10.662 245.861-69.426 292.72-182.985.303-.727.606-1.515.909-2.302-26.625 29.866-128.701 174.382-330.522 155.481-7.663-.727-15.811-2.968-23.838-4.544-1.908-1.272-3.817-2.605-5.725-3.938 13.964 12.843 28.2 24.081 42.618 33.744 8.027 1.575 16.175 3.817 23.838 4.544z" fill="#fdd76f" fill-rule="evenodd"/></g><g><path clip-rule="evenodd" d="m44.237 171.087c-10.723-3.938-21.778-3.817-33.44 7.694-10.45 10.329-13.418 25.626-8.451 37.924 44.526 7.936 42.951-40.408 41.891-45.618z" fill="#ce9875" fill-rule="evenodd"/></g><g><path clip-rule="evenodd" d="m81.948 299.973c-12.873-1.363-24.838 1.151-33.228 17.266-4.453 8.512-5.18 18.083-2.787 26.534 35.802 13.571 44.435-36.893 36.015-43.8z" fill="#ce9875" fill-rule="evenodd"/></g><g><path clip-rule="evenodd" d="m146.283 404.567c-8.875 3.362-15.872 9.966-18.537 23.687-1.605 8.3-.273 16.539 3.271 23.445 45.495.424 42.375-42.498 42.345-51.312-9.39.666-19.022 1.09-27.079 4.18z" fill="#ce9875" fill-rule="evenodd"/></g><g><path clip-rule="evenodd" d="m497.401 50.198-87.507-12.783c-9.299-1.363-18.022 5.119-19.385 14.418l-7.36 50.252c-1.333 9.299 5.089 20.204 14.448 19.356l7.815-.666 2.453-.212 1.575-.151 58.883-5.21 19.809-1.757c.454-.03.878-.091 1.333-.121 8.845-1.121 16.75-5.452 18.053-14.297l4.301-29.442c1.363-9.301-5.119-18.024-14.418-19.387z" fill="#ce9875" fill-rule="evenodd"/></g><g><path clip-rule="evenodd" d="m468.384 66.131-5.058 34.622c-.576 3.877-2.211 7.027-4.604 9.481-3.877 4.059-9.693 6.331-15.963 7.239l25.565-2.272 19.809-1.757c.454-.03.878-.091 1.333-.121 8.845-1.121 16.75-5.452 18.053-14.297l4.301-29.442c1.363-9.299-5.119-18.023-14.418-19.386l-43.769-6.391c9.722 2.574 16.235 12.146 14.751 22.324z" fill="#c6865c" fill-rule="evenodd"/></g><g><path d="m290.523 416.111c-3.19 0-6.175-1.99-7.291-5.171-1.412-4.026.707-8.436 4.733-9.848 20.999-7.366 39.745-16.585 55.715-27.398 41.522-28.107 67.286-68.051 81.084-125.709.993-4.15 5.166-6.709 9.312-5.716 4.15.993 6.709 5.162 5.716 9.312-7.166 29.948-17.345 55.115-31.118 76.942-14.703 23.301-33.129 42.263-56.331 57.968-17.069 11.558-37.009 21.377-59.263 29.184-.846.296-1.709.436-2.557.436z" fill="#ffbc85"/></g></g></svg>