<?xml version="1.0" encoding="iso-8859-1"?>
<!-- Generator: Adobe Illustrator 19.0.0, SVG Export Plug-In . SVG Version: 6.00 Build 0)  -->
<svg version="1.1" id="Capa_1" xmlns="http://www.w3.org/2000/svg" xmlns:xlink="http://www.w3.org/1999/xlink" x="0px" y="0px"
	 viewBox="0 0 512 512" style="enable-background:new 0 0 512 512;" xml:space="preserve">
<path style="fill:#8CDC52;" d="M314.307,198.216c-11.332-11.332-18.349-26.975-18.349-44.228c0-4.54,0.503-9.109,1.497-13.59
	c4.493-25.836,20.269-79.15,32.747-119.432C334.087,8.426,345.516,0,358.641,0c13.125,0,24.555,8.425,28.439,20.967
	c4.068,13.13,7.835,25.543,11.26,37.098c10.479-5.684,21.798-11.731,33.832-18.074c11.613-6.12,25.653-3.996,34.932,5.284
	c0.001,0.001,0,0,0,0c9.282,9.282,11.405,23.322,5.284,34.936c-6.413,12.169-12.526,23.61-18.27,34.194
	c11.437,3.393,23.719,7.121,36.705,11.144l0,0c12.541,3.885,20.967,15.315,20.968,28.443c0,13.122-8.422,24.548-20.958,28.43
	c-110.214,34.141-126.836,34.142-132.3,34.142C341.283,216.565,325.638,209.546,314.307,198.216z"/>
<path style="fill:#FFB726;" d="M13.816,498.392C13.816,498.391,13.817,498.393,13.816,498.392
	c-14.722-14.722-20.28-40.569-2.42-61.486l218.832-256.281c12.978-15.199,31.875-24.367,51.846-25.153
	c19.971-0.785,39.529,6.869,53.66,21c14.133,14.133,21.787,33.691,21,53.66c-0.785,19.971-9.953,38.868-25.153,51.846
	L75.301,500.812C54.386,518.671,28.537,513.113,13.816,498.392z"/>
<g>
	<path style="fill:#FC8B26;" d="M215.109,254.911l-16.076-16.076c-5.966-5.966-5.966-15.639,0-21.605
		c5.966-5.966,15.639-5.966,21.605,0l16.076,16.076c5.966,5.966,5.966,15.639,0,21.605
		C230.748,260.878,221.075,260.878,215.109,254.911z"/>
	<path style="fill:#FC8B26;" d="M174.324,295.909l-12.958-12.958c-5.966-5.966-5.966-15.639,0-21.605
		c5.966-5.966,15.639-5.966,21.605,0l12.958,12.958c5.966,5.966,5.966,15.639,0,21.605S180.29,301.875,174.324,295.909z"/>
	<path style="fill:#FC8B26;" d="M131.049,339.184l-9.594-9.594c-5.966-5.966-5.966-15.639,0-21.605
		c5.966-5.966,15.639-5.966,21.605,0l9.594,9.594c5.966,5.966,5.966,15.639,0,21.605C146.688,345.15,137.015,345.15,131.049,339.184
		z"/>
</g>
<path style="fill:#5DC378;" d="M490.824,125.55c-12.986-4.023-25.267-7.751-36.705-11.144c5.743-10.584,11.856-22.025,18.27-34.194
	c6.121-11.615,3.998-25.655-5.284-34.936c-0.001-0.001,0,0,0,0c-0.064-0.064-0.133-0.119-0.198-0.182L314.052,197.949
	c0.087,0.088,0.168,0.18,0.255,0.268c11.331,11.331,26.975,18.349,44.228,18.349c5.462,0,22.085,0,132.3-34.142
	c12.536-3.884,20.958-15.309,20.958-28.43C511.791,140.865,503.365,129.434,490.824,125.55z"/>
<path style="fill:#FC8B26;" d="M335.735,176.474c-0.035-0.035-0.072-0.066-0.107-0.102L13.714,498.286
	c0.035,0.035,0.067,0.071,0.102,0.106c0.001,0.001,0,0,0,0c14.721,14.721,40.57,20.279,61.486,2.42L331.583,281.98
	c15.199-12.978,24.367-31.875,25.153-51.846C357.522,210.165,349.867,190.605,335.735,176.474z"/>
<g>
</g>
<g>
</g>
<g>
</g>
<g>
</g>
<g>
</g>
<g>
</g>
<g>
</g>
<g>
</g>
<g>
</g>
<g>
</g>
<g>
</g>
<g>
</g>
<g>
</g>
<g>
</g>
<g>
</g>
</svg>
