<svg id="Capa_1" enable-background="new 0 0 512 512" height="512" viewBox="0 0 512 512" width="512" xmlns="http://www.w3.org/2000/svg"><g><path d="m497 212h-196v-187c0-13.785-11.215-25-25-25h-40c-13.785 0-25 11.215-25 25v187h-196c-8.284 0-15 6.716-15 15v60c0 8.284 6.716 15 15 15h17.36l15.259 160.214c2.703 28.383 26.242 49.786 54.753 49.786h307.257c28.511 0 52.049-21.403 54.752-49.785l15.259-160.215h17.36c8.284 0 15-6.716 15-15v-60c0-8.284-6.716-15-15-15zm-256-182h30v182h-30zm131.522 212-116.522 116.522-116.522-116.522zm-12.689 170h-49.211l.762-40h50.735zm32.334-40h50.669l-3.81 40h-49.146zm-323.004 0h50.669l2.286 40h-49.145zm80.719 0h50.735l.762 40h-49.211zm7.17-70 40 40h-48.884l-2.286-40zm124.257 73.639-.693 36.361h-49.233l-.693-36.361 14.703 14.703c2.929 2.929 6.768 4.394 10.606 4.394s7.678-1.464 10.606-4.394zm-79.359 66.361.762 40h-46.544l-2.286-40zm30.005 0h48.09l-.762 40h-46.566zm78.095 0h48.068l-2.286 40h-46.544zm4.898-100 40-40h11.17l-2.286 40zm-284.948-100h67.052l30 30h-97.052zm85.833 60 2.286 40h-51.813l-3.81-40zm-38.349 157.371-1.654-17.371h48.003l2.286 40h-23.747c-12.96 0-23.659-9.729-24.888-22.629zm332.145 22.629h-23.747l2.286-40h48.003l-1.654 17.371c-1.23 12.9-11.929 22.629-24.888 22.629zm36.065-140h-51.812l2.286-40h53.336zm36.306-70h-97.052l30-30h67.052z"/></g></svg>