<svg id="Outline" height="512" viewBox="0 0 512 512" width="512" xmlns="http://www.w3.org/2000/svg"><path d="m96 376a8 8 0 0 0 8-8v-48a8 8 0 0 0 -16 0v48a8 8 0 0 0 8 8z"/><path d="m488 224h-109.931l-75.731-192.771a24.009 24.009 0 0 0 -46.338 8.128 24 24 0 0 0 -46.338-8.128l-75.731 192.771h-109.931a8 8 0 0 0 -8 8v48a8 8 0 0 0 6.927 7.92l22.641 181.123c1.921 15.368 15.58 26.957 31.774 26.957h357.316c16.194 0 29.853-11.589 31.774-26.957l22.641-181.123a8 8 0 0 0 6.927-7.92v-48a8 8 0 0 0 -8-8zm-215.333-187.192a8 8 0 0 1 14.778.272l85.076 216.554-14.892 5.85-85.074-216.554a7.935 7.935 0 0 1 .112-6.122zm72.688 235.192h-178.71l12.571-32h153.568zm-91.017-223.219a24.023 24.023 0 0 0 1.662-8.022 24.023 24.023 0 0 0 1.662 8.022l68.838 175.219h-141zm-29.783-11.7a8 8 0 1 1 14.89 5.851l-85.074 216.552-14.892-5.85zm-192.555 202.919h95.645l-5.983 15.229a8 8 0 0 0 4.521 10.371l16.289 6.4h-110.472zm418.555 227.059c-.922 7.378-7.756 12.941-15.9 12.941h-357.313c-8.141 0-14.975-5.563-15.9-12.941l-22.38-179.059h433.876zm29.445-195.059h-110.472l16.289-6.4a8 8 0 0 0 4.521-10.371l-5.983-15.229h95.645z"/><path d="m96 456a8 8 0 0 0 8-8v-48a8 8 0 0 0 -16 0v48a8 8 0 0 0 8 8z"/><path d="m128 376a8 8 0 0 0 8-8v-48a8 8 0 0 0 -16 0v48a8 8 0 0 0 8 8z"/><path d="m128 456a8 8 0 0 0 8-8v-48a8 8 0 0 0 -16 0v48a8 8 0 0 0 8 8z"/><path d="m160 376a8 8 0 0 0 8-8v-48a8 8 0 0 0 -16 0v48a8 8 0 0 0 8 8z"/><path d="m160 456a8 8 0 0 0 8-8v-48a8 8 0 0 0 -16 0v48a8 8 0 0 0 8 8z"/><path d="m192 376a8 8 0 0 0 8-8v-48a8 8 0 0 0 -16 0v48a8 8 0 0 0 8 8z"/><path d="m192 456a8 8 0 0 0 8-8v-48a8 8 0 0 0 -16 0v48a8 8 0 0 0 8 8z"/><path d="m320 376a8 8 0 0 0 8-8v-48a8 8 0 0 0 -16 0v48a8 8 0 0 0 8 8z"/><path d="m320 456a8 8 0 0 0 8-8v-48a8 8 0 0 0 -16 0v48a8 8 0 0 0 8 8z"/><path d="m352 376a8 8 0 0 0 8-8v-48a8 8 0 0 0 -16 0v48a8 8 0 0 0 8 8z"/><path d="m352 456a8 8 0 0 0 8-8v-48a8 8 0 0 0 -16 0v48a8 8 0 0 0 8 8z"/><path d="m384 376a8 8 0 0 0 8-8v-48a8 8 0 0 0 -16 0v48a8 8 0 0 0 8 8z"/><path d="m384 456a8 8 0 0 0 8-8v-48a8 8 0 0 0 -16 0v48a8 8 0 0 0 8 8z"/><path d="m416 376a8 8 0 0 0 8-8v-48a8 8 0 0 0 -16 0v48a8 8 0 0 0 8 8z"/><path d="m416 456a8 8 0 0 0 8-8v-48a8 8 0 0 0 -16 0v48a8 8 0 0 0 8 8z"/><path d="m256 376a8 8 0 0 0 8-8v-48a8 8 0 0 0 -16 0v48a8 8 0 0 0 8 8z"/><path d="m256 456a8 8 0 0 0 8-8v-48a8 8 0 0 0 -16 0v48a8 8 0 0 0 8 8z"/><path d="m224 376a8 8 0 0 0 8-8v-48a8 8 0 0 0 -16 0v48a8 8 0 0 0 8 8z"/><path d="m224 456a8 8 0 0 0 8-8v-48a8 8 0 0 0 -16 0v48a8 8 0 0 0 8 8z"/><path d="m288 376a8 8 0 0 0 8-8v-48a8 8 0 0 0 -16 0v48a8 8 0 0 0 8 8z"/><path d="m288 456a8 8 0 0 0 8-8v-48a8 8 0 0 0 -16 0v48a8 8 0 0 0 8 8z"/></svg>