<?xml version="1.0" encoding="iso-8859-1"?>
<!-- Generator: Adobe Illustrator 19.0.0, SVG Export Plug-In . SVG Version: 6.00 Build 0)  -->
<svg version="1.1" id="Capa_1" xmlns="http://www.w3.org/2000/svg" xmlns:xlink="http://www.w3.org/1999/xlink" x="0px" y="0px"
	 viewBox="0 0 511.999 511.999" style="enable-background:new 0 0 511.999 511.999;" xml:space="preserve">
<path style="fill:#11A892;" d="M494.417,128.912c-4.232-42.831-29.35-86.386-67.192-116.514L411.65,0
	C271.444,340.159,257.671,354.778,262.859,417.431c5.718,69.044,51.353,89.445,54.407,92.669
	c86.436-33.471,102.938-110.566,150.935-245.35C482.745,223.923,499.231,177.649,494.417,128.912z"/>
<path style="fill:#83E46F;" d="M419.325,19.336l-8.748-17.882C75.913,304.818,54.479,312.843,27.668,383.893
	c-29.161,77.273,9.061,123.448,10.401,127.629c57.115,4.142,113.534-18.98,155.386-57.734
	c46.947-43.473,92.878-89.552,138.506-135.165c37.61-37.588,80.24-80.192,100.434-136.39
	C450.06,133.072,445.175,72.176,419.325,19.336z"/>
<g>
	<path style="fill:#FFDF48;" d="M230.139,241.166c-26.982,0-48.935,21.952-48.935,48.936c0,26.982,21.952,48.935,48.935,48.935
		s48.935-21.952,48.935-48.935C279.074,263.118,257.122,241.166,230.139,241.166z"/>
	<path style="fill:#FFDF48;" d="M309.88,162.06c-26.983,0-48.936,21.952-48.936,48.936c0,26.982,21.952,48.935,48.936,48.935
		c26.982,0,48.935-21.952,48.935-48.935C358.815,184.012,336.862,162.06,309.88,162.06z"/>
	<path style="fill:#FFDF48;" d="M149.339,316.965c-26.982,0-48.935,21.952-48.935,48.936c0,26.982,21.952,48.935,48.935,48.935
		s48.936-21.952,48.936-48.935C198.275,338.917,176.322,316.965,149.339,316.965z"/>
</g>
<g>
</g>
<g>
</g>
<g>
</g>
<g>
</g>
<g>
</g>
<g>
</g>
<g>
</g>
<g>
</g>
<g>
</g>
<g>
</g>
<g>
</g>
<g>
</g>
<g>
</g>
<g>
</g>
<g>
</g>
</svg>
