<svg height="463pt" viewBox="0 -22 463.03409 463" width="463pt" xmlns="http://www.w3.org/2000/svg"><path d="m167.121094 341.570312.71875-.140624c17.621094-3.488282 29.082031-20.601563 25.59375-38.226563l-18.472656-93.296875-32.625 6.460938zm0 0" fill="#fcda4f"/><path d="m180.730469 23.65625c-37.359375-.78125-68.589844 43.53125-69.753907 98.980469-1.164062 55.449219 28.175782 101.035156 65.535157 101.820312 37.359375.785157 68.589843-43.527343 69.753906-98.976562s-28.175781-101.039063-65.535156-101.824219zm0 0" fill="#ccc033"/><path d="m214.050781 98.734375c-6.066406-30.648437-19.652343-56.90625-36.914062-75-36.558594 2.085937-66.027344 47.03125-66.191407 101.59375-.160156 53.378906 27.785157 96.496094 63.21875 99.019531 33.417969-17.960937 50.933594-69.820312 39.886719-125.613281zm0 0" fill="#99af17"/><path d="m167.121094 341.570312-.71875.144532c-17.621094 3.484375-34.734375-7.96875-38.222656-25.59375l-18.472657-93.296875 32.625-6.460938zm0 0" fill="#fcda4f"/><path d="m135.898438 117.714844c-22.203126-50.820313-67.964844-79.894532-102.207032-64.933594-34.246094 14.960938-44 68.292969-21.796875 119.117188 22.207031 50.824218 67.96875 79.894531 102.210938 64.933593 34.242187-14.960937 44-68.292969 21.792969-119.117187zm0 0" fill="#99af17"/><path d="m201.292969 101.269531c-12.648438-63.902343-57.972657-108.765625-101.234375-100.203125-43.261719 8.566406-68.074219 67.3125-55.421875 131.214844 12.648437 63.902344 57.972656 108.765625 101.234375 100.199219 43.257812-8.5625 68.074218-67.308594 55.421875-131.210938zm0 0" fill="#eacf32"/><path d="m87.191406 123.847656c-10.496094-53.003906 4.789063-102.460937 34.996094-122.671875-7.324219-1.476562-14.757812-1.574219-22.132812-.109375-43.257813 8.5625-68.070313 67.308594-55.417969 131.207032 12.648437 63.902343 57.972656 108.761718 101.230469 100.199218 7.375-1.460937 14.210937-4.382812 20.421874-8.539062-35.628906-7.175782-68.605468-47.078125-79.097656-100.085938zm0 0" fill="#ccc033"/><path d="m117.714844 125.996094c-16.34375 0-29.507813-8.757813-30.152344-9.195313-2.742188-1.859375-3.460938-5.585937-1.605469-8.332031 1.855469-2.742188 5.578125-3.464844 8.320313-1.617188.210937.140626 14.714844 9.648438 29.796875 6.5 8.53125-1.78125 15.863281-7.378906 21.796875-16.636718 1.785156-2.792969 5.492187-3.609375 8.289062-1.816406 2.789063 1.789062 3.601563 5.5 1.8125 8.289062-7.765625 12.117188-17.707031 19.496094-29.5625 21.9375-2.957031.609375-5.871094.871094-8.695312.871094zm0 0" fill="#ffeea4"/><path d="m127.5625 179.792969c-24.632812 0-45.363281-17.292969-46.347656-18.125-2.527344-2.140625-2.839844-5.925781-.699219-8.453125s5.917969-2.84375 8.449219-.707032c.230468.191407 23.230468 19.292969 46.277344 14.511719 13.121093-2.71875 24.128906-12.835937 32.722656-30.074219 1.476562-2.964843 5.082031-4.171874 8.042968-2.695312 2.964844 1.480469 4.171876 5.082031 2.695313 8.046875-10.332031 20.726563-24.160156 33.003906-41.101563 36.488281-3.386718.699219-6.75 1.007813-10.039062 1.007813zm0 0" fill="#ffeea4"/><path d="m124.34375 80.605469c-.90625-3.949219-5.09375-6.410157-9.441406-5.546875-4.335938.859375-7.265625 4.707031-6.617188 8.699218l39.886719 245.578126c.105469.644531.300781 1.25.566406 1.820312 2.296875 7.4375 10.179688 12.039062 18.339844 10.425781.058594-.011719.113281-.03125.167969-.042969.066406-.011718.132812-.019531.199218-.03125 8.058594-1.59375 13.492188-8.847656 12.699219-16.574218.03125-.613282-.015625-1.238282-.160156-1.863282zm0 0" fill="#fff9dc"/><path d="m158.378906 329.246094c-.265625-.570313-.464844-1.175782-.566406-1.820313l-39.886719-245.578125c-.378906-2.328125.464844-4.601562 2.089844-6.265625-1.527344-.660156-3.304687-.882812-5.113281-.523437-4.335938.855468-7.265625 4.707031-6.617188 8.695312l39.886719 245.578125c.105469.644531.300781 1.253907.566406 1.820313 2.296875 7.4375 10.179688 12.042968 18.339844 10.425781.058594-.011719.113281-.027344.167969-.039063.066406-.015624.132812-.019531.199218-.03125 1.605469-.320312 3.101563-.867187 4.46875-1.59375-6.277343-.585937-11.699218-4.714843-13.535156-10.667968zm0 0" fill="#fff4c1"/><path d="m289.242188 307.09375c-9.542969-5.28125-14.007813-16.480469-10.589844-26.550781l50.636718-149.160157c9.902344-29.171874 44.304688-41.886718 71.941407-26.585937s35.125 51.203125 15.660156 75.082031l-99.527344 122.09375c-6.71875 8.246094-18.578125 10.40625-28.121093 5.121094zm0 0" fill="#ff624b"/><path d="m441.203125 67.007812h-.007813c1.542969-1.503906 2.898438-3.25 3.996094-5.230468 6.167969-11.140625 1.898438-25.308594-9.539062-31.640625-11.433594-6.328125-25.707032-2.425781-31.875 8.714843-1.09375 1.980469-1.855469 4.054688-2.3125 6.160157h-.003906l-.011719.066406c-.125.59375-.226563 1.191406-.304688 1.792969l-7.066406 41.390625c-.582031 3.40625 1.109375 6.847656 4.203125 8.558593 3.046875 1.6875 6.800781 1.332032 9.378906-.894531l31.476563-27.140625c.699219-.53125 1.363281-1.109375 2-1.722656zm0 0" fill="#eacf32"/><g fill="#ff4b34"><path d="m329.859375 250.375c-.796875 0-1.609375-.160156-2.386719-.5l-25.464844-11.066406c-3.039062-1.320313-4.433593-4.851563-3.113281-7.894532 1.320313-3.035156 4.855469-4.433593 7.894531-3.109374l25.464844 11.066406c3.039063 1.316406 4.433594 4.851562 3.113282 7.890625-.984376 2.261719-3.1875 3.613281-5.507813 3.613281zm0 0"/><path d="m367.800781 230.875c-.792969 0-1.605469-.160156-2.386719-.5l-33.113281-14.378906c-3.039062-1.320313-4.433593-4.855469-3.113281-7.894532 1.320312-3.039062 4.847656-4.4375 7.890625-3.113281l33.117187 14.378907c3.039063 1.320312 4.433594 4.855468 3.113282 7.894531-.980469 2.261719-3.1875 3.613281-5.507813 3.613281zm0 0"/><path d="m354.722656 187.78125c-.792968 0-1.609375-.160156-2.382812-.5l-25.464844-11.066406c-3.042969-1.320313-4.433594-4.855469-3.113281-7.894532 1.316406-3.035156 4.859375-4.433593 7.890625-3.109374l25.464844 11.0625c3.039062 1.320312 4.433593 4.859374 3.113281 7.894531-.980469 2.261719-3.1875 3.613281-5.507813 3.613281zm0 0"/><path d="m404.785156 174.355469c-.796875 0-1.609375-.160157-2.386718-.496094l-45.675782-19.835937c-3.039062-1.320313-4.433594-4.855469-3.113281-7.894532 1.320313-3.039062 4.847656-4.433594 7.890625-3.113281l45.679688 19.835937c3.039062 1.320313 4.433593 4.855469 3.113281 7.894532-.984375 2.261718-3.191407 3.609375-5.507813 3.609375zm0 0"/></g><path d="m404.945312 97.464844c.015626-.144532.03125-.292969.054688-.441406l7.0625-41.390626c.078125-.601562.179688-1.199218.308594-1.792968l.011718-.066406h.003907c.457031-2.105469 1.214843-4.179688 2.308593-6.160157 5.695313-10.289062 18.296876-14.394531 29.199219-9.984375-2.050781-3-4.824219-5.597656-8.242187-7.488281-11.4375-6.332031-25.707032-2.429687-31.878906 8.714844-1.09375 1.976562-1.851563 4.050781-2.308594 6.160156l-.003906-.003906-.011719.070312c-.128907.59375-.230469 1.191407-.308594 1.789063l-7.0625 41.394531c-.582031 3.40625 1.109375 6.84375 4.199219 8.558594 2.097656 1.15625 4.519531 1.347656 6.667968.640625zm0 0" fill="#ccc033"/><path d="m401.652344 90.128906-7.097656-33.457031c-.105469-.710937-.257813-1.421875-.449219-2.125l-.015625-.0625h-.003906c-.472657-1.714844-1.191407-3.398437-2.179688-5-5.566406-9.023437-17.398438-12.046875-26.429688-6.753906-9.03125 5.296875-11.835937 16.90625-6.269531 25.929687.988281 1.601563 2.175781 3.007813 3.507813 4.21875l-.003906.003906.046874.035157c.375.339843.761719.664062 1.164063.972656l26.902344 22.464844c2.214843 1.847656 5.34375 2.128906 7.785156.695312 2.410156-1.410156 3.625-4.179687 3.042969-6.921875zm0 0" fill="#fce575"/><path d="m377.410156 67.6875c-.394531-.304688-.785156-.628906-1.164062-.96875l-.042969-.039062.003906-.003907c-1.332031-1.207031-2.519531-2.617187-3.507812-4.21875-4.519531-7.324219-3.519531-16.351562 1.84375-22.324219-3.113281.09375-6.230469.933594-9.066407 2.597657-9.03125 5.292969-11.835937 16.90625-6.269531 25.929687.988281 1.601563 2.175781 3.007813 3.507813 4.21875l-.003906.003906.046874.035157c.375.339843.761719.664062 1.164063.972656l26.902344 22.464844c2.214843 1.847656 5.34375 2.128906 7.785156.695312 2.410156-1.410156 3.625-4.179687 3.042969-6.921875l-.566406-2.671875zm0 0" fill="#eacf32"/><path d="m463.027344 96.734375c-.308594-10.464844-9.152344-18.886719-19.753906-18.816406-1.882813.011719-3.691407.300781-5.394532.808593v-.003906l-.0625.023438c-.699218.210937-1.382812.460937-2.042968.746094l-32.121094 11.742187c-2.628906.960937-4.332032 3.464844-4.25 6.253906.082031 2.832031 1.980468 5.335938 4.722656 6.230469l33.320312 10.871094c.46875.175781.949219.332031 1.4375.472656l.058594.015625v-.003906c1.734375.488281 3.554688.746093 5.4375.734375 10.605469-.070313 18.953125-8.613282 18.648438-19.074219zm0 0" fill="#fce575"/><path d="m457.871094 109.605469c-1.882813.015625-3.707032-.246094-5.4375-.730469v.003906l-.058594-.019531c-.488281-.136719-.96875-.296875-1.4375-.46875l-33.320312-10.875c-2.742188-.894531-4.640626-3.398437-4.722657-6.226563-.042969-1.410156.371094-2.742187 1.128907-3.84375l-10.371094 3.792969c-2.628906.960938-4.332032 3.460938-4.25 6.253907.082031 2.828124 1.980468 5.332031 4.722656 6.226562l33.320312 10.875c.46875.171875.949219.332031 1.4375.46875l.058594.019531v-.003906c1.734375.488281 3.554688.746094 5.4375.734375 5.589844-.039062 10.550782-2.433594 13.949219-6.21875-.152344.003906-.300781.011719-.457031.011719zm0 0" fill="#eacf32"/><path d="m305.101562 287.308594 50.636719-149.160156c6.914063-20.371094 25.777344-32.714844 45.9375-33.097657-.148437-.085937-.296875-.171875-.445312-.253906-27.636719-15.300781-62.039063-2.585937-71.941407 26.585937l-50.636718 149.160157c-3.421875 10.070312 1.046875 21.269531 10.585937 26.550781 6.285157 3.476562 13.570313 3.726562 19.734375 1.140625-4.695312-5.792969-6.339844-13.652344-3.871094-20.925781zm0 0" fill="#ff4b34"/><path d="m237.238281 158.683594c-2.992187 0-5.46875-2.421875-5.648437-5.53125l-2.511719-42.59375c-.199219-3.390625 2.390625-6.253906 5.652344-6.253906h5.015625c3.265625 0 5.851562 2.863281 5.652344 6.253906l-2.507813 42.59375c-.179687 3.109375-2.65625 5.53125-5.652344 5.53125zm0 0" fill="#bf6c0d"/><path d="m243.464844 138.839844c34.195312 18.941406 43.527344-20.480469 45.625-33.378906.351562-2.179688-1.105469-4.226563-3.214844-4.523438-12.746094-1.769531-53.226562-4.503906-45.269531 33.96875.347656 1.683594 1.394531 3.125 2.859375 3.933594zm0 0" fill="#eacf32"/><path d="m236.875 153.152344-2.507812-42.59375c-.195313-3.34375 2.316406-6.167969 5.515624-6.246094-.046874-.003906-.089843-.007812-.136718-.007812h-5.015625c-3.261719 0-5.851563 2.863281-5.652344 6.253906l2.511719 42.59375c.183594 3.109375 2.65625 5.53125 5.648437 5.53125.953125 0 1.855469-.246094 2.644531-.679688-1.691406-.933594-2.886718-2.734375-3.007812-4.851562zm0 0" fill="#8c4c17"/><path d="m287.722656 140.660156c-17.804687-3.828125-35.820312 1.753906-50.617187 13.890625-14.800781-12.136719-32.816407-17.71875-50.621094-13.890625-35.929687 7.730469-57.386719 50.847656-47.925781 96.308594 9.460937 45.460938 46.253906 76.050781 82.183594 68.324219 5.863281-1.261719 11.339843-3.46875 16.359374-6.472657 5.019532 3.003907 10.496094 5.210938 16.359376 6.472657 35.929687 7.726562 72.726562-22.863281 82.183593-68.324219 9.464844-45.460938-11.992187-88.578125-47.921875-96.308594zm0 0" fill="#ff624b"/><path d="m250.898438 140.054688c-6.796876-32.890626 21.792968-35.664063 38.199218-34.671876.308594-2.148437-1.136718-4.15625-3.222656-4.445312-12.746094-1.773438-53.222656-4.507812-45.269531 33.96875.347656 1.679688 1.402343 3.125 2.863281 3.933594 3.078125 1.707031 5.957031 2.933594 8.644531 3.753906-.589843-.722656-1.015625-1.589844-1.214843-2.539062zm0 0" fill="#ccc033"/><path d="m169.449219 236.96875c-9.09375-43.699219 10.382812-85.230469 43.820312-95.246094-8.6875-2.523437-17.761719-3-26.785156-1.0625-35.929687 7.730469-57.386719 50.847656-47.925781 96.308594 9.460937 45.460938 46.253906 76.050781 82.183594 68.324219 1.390624-.296875 2.757812-.65625 4.101562-1.058594-25.894531-7.519531-48.308594-33.222656-55.394531-67.265625zm0 0" fill="#ff4b34"/><path d="m37.007812 407.707031v-228.628906c0-5.351563 4.335938-9.6875 9.6875-9.6875h45.792969c5.351563 0 9.6875 4.335937 9.6875 9.6875v228.628906c0 5.347657-4.335937 9.683594-9.6875 9.683594h-45.792969c-5.351562 0-9.6875-4.335937-9.6875-9.683594zm0 0" fill="#db9c2e"/><path d="m361.839844 407.707031v-228.628906c0-5.351563 4.335937-9.6875 9.6875-9.6875h45.792968c5.351563 0 9.6875 4.335937 9.6875 9.6875v228.628906c0 5.347657-4.335937 9.683594-9.6875 9.683594h-45.792968c-5.347656 0-9.6875-4.335937-9.6875-9.683594zm0 0" fill="#db9c2e"/><path d="m447.007812 256.285156h-430c-5.523437 0-10-4.476562-10-10v-45c0-5.523437 4.476563-10 10-10h430c5.523438 0 10 4.476563 10 10v45c0 5.523438-4.476562 10-10 10zm0 0" fill="#ffc34c"/><path d="m447.007812 337.285156h-430c-5.523437 0-10-4.476562-10-10v-45c0-5.523437 4.476563-10 10-10h430c5.523438 0 10 4.476563 10 10v45c0 5.523438-4.476562 10-10 10zm0 0" fill="#ffc34c"/><path d="m447.007812 418.285156h-430c-5.523437 0-10-4.476562-10-10v-45c0-5.523437 4.476563-10 10-10h430c5.523438 0 10 4.476563 10 10v45c0 5.523438-4.476562 10-10 10zm0 0" fill="#ffc34c"/><path d="m439.007812 406.28125c-3.3125 0-6-2.683594-6-6v-29c0-3.3125 2.6875-6 6-6s6 2.6875 6 6v29c0 3.316406-2.6875 6-6 6zm0 0" fill="#ffd551"/><path d="m404.007812 383.285156c0 5.523438-4.476562 10-10 10-5.523437 0-10-4.476562-10-10 0-5.523437 4.476563-10 10-10 5.523438 0 10 4.476563 10 10zm0 0" fill="#ffdf74"/><path d="m404.007812 302.285156c0 5.523438-4.476562 10-10 10-5.523437 0-10-4.476562-10-10 0-5.523437 4.476563-10 10-10 5.523438 0 10 4.476563 10 10zm0 0" fill="#ffdf74"/><path d="m404.007812 221.285156c0 5.523438-4.476562 10-10 10-5.523437 0-10-4.476562-10-10 0-5.523437 4.476563-10 10-10 5.523438 0 10 4.476563 10 10zm0 0" fill="#ffdf74"/><path d="m67.007812 327.285156v-45c0-5.523437 4.476563-10 10-10h-60c-5.523437 0-10 4.476563-10 10v45c0 5.523438 4.476563 10 10 10h60c-5.523437 0-10-4.476562-10-10zm0 0" fill="#f9bb32"/><path d="m67.007812 408.285156v-45c0-5.523437 4.476563-10 10-10h-60c-5.523437 0-10 4.476563-10 10v45c0 5.523438 4.476563 10 10 10h60c-5.523437 0-10-4.476562-10-10zm0 0" fill="#f9bb32"/><path d="m67.007812 246.285156v-45c0-5.523437 4.476563-10 10-10h-60c-5.523437 0-10 4.476563-10 10v45c0 5.523438 4.476563 10 10 10h60c-5.523437 0-10-4.476562-10-10zm0 0" fill="#f9bb32"/><path d="m80.007812 221.285156c0 5.523438-4.476562 10-10 10-5.523437 0-10-4.476562-10-10 0-5.523437 4.476563-10 10-10 5.523438 0 10 4.476563 10 10zm0 0" fill="#ffdf74"/><path d="m80.007812 302.285156c0 5.523438-4.476562 10-10 10-5.523437 0-10-4.476562-10-10 0-5.523437 4.476563-10 10-10 5.523438 0 10 4.476563 10 10zm0 0" fill="#ffdf74"/><path d="m80.007812 383.285156c0 5.523438-4.476562 10-10 10-5.523437 0-10-4.476562-10-10 0-5.523437 4.476563-10 10-10 5.523438 0 10 4.476563 10 10zm0 0" fill="#ffdf74"/><path d="m67.007812 311.824219v-19.082031c-4.054687 1.273437-7 5.066406-7 9.542968 0 4.476563 2.941407 8.265625 7 9.539063zm0 0" fill="#ffd551"/><path d="m67.007812 392.824219v-19.082031c-4.054687 1.273437-7 5.066406-7 9.542968 0 4.476563 2.941407 8.265625 7 9.539063zm0 0" fill="#ffd551"/><path d="m67.007812 230.824219v-19.082031c-4.054687 1.273437-7 5.066406-7 9.542968 0 4.476563 2.941407 8.265625 7 9.539063zm0 0" fill="#ffd551"/><path d="m148.972656 221.285156c0 9.664063-7.835937 17.5-17.5 17.5-9.664062 0-17.5-7.835937-17.5-17.5 0-9.664062 7.835938-17.5 17.5-17.5 9.664063 0 17.5 7.835938 17.5 17.5zm0 0" fill="#f9bb32"/><path d="m208.972656 302.285156c0 9.664063-7.835937 17.5-17.5 17.5-9.664062 0-17.5-7.835937-17.5-17.5 0-9.664062 7.835938-17.5 17.5-17.5 9.664063 0 17.5 7.835938 17.5 17.5zm0 0" fill="#f9bb32"/><path d="m439.007812 325.28125c-3.3125 0-6-2.683594-6-6v-29c0-3.3125 2.6875-6 6-6s6 2.6875 6 6v29c0 3.316406-2.6875 6-6 6zm0 0" fill="#ffd551"/><path d="m439.007812 241.28125c-3.3125 0-6-2.683594-6-6v-29c0-3.3125 2.6875-6 6-6s6 2.6875 6 6v29c0 3.316406-2.6875 6-6 6zm0 0" fill="#ffd551"/></svg>