<?xml version="1.0" encoding="UTF-8"?><svg version="1.1" id="Layer_1" xmlns="http://www.w3.org/2000/svg" xmlns:xlink="http://www.w3.org/1999/xlink" x="0px" y="0px" viewBox="0 0 1000 1000" enable-background="new 0 0 1000 1000" xml:space="preserve" width="1000px" height="1000px">
<g>
	<g id="Layer_1_1_">
		<path fill="#72B579" d="M142.261,726.005c-15.16-12.341-17.446-34.635-5.105-49.795c12.341-15.16,34.635-17.446,49.795-5.105
			c15.16,12.341,17.446,34.635,5.105,49.795c-1.523,1.871-3.234,3.582-5.105,5.105H142.261z"/>
		<path fill="#464950" d="M142.261,731.005c-1.151,0-2.267-0.397-3.159-1.124c-17.301-14.085-19.907-39.529-5.822-56.83
			c14.085-17.301,39.529-19.907,56.83-5.822s19.907,39.529,5.822,56.83c-1.737,2.134-3.688,4.084-5.822,5.822
			c-0.893,0.725-2.009,1.12-3.159,1.119L142.261,731.005z M164.605,668.159c-16.789,0.007-30.394,13.624-30.387,30.413
			c0.004,8.536,3.596,16.676,9.898,22.433H185.1c12.396-11.324,13.265-30.552,1.942-42.948c-5.757-6.302-13.897-9.893-22.433-9.897
			L164.605,668.159z"/>
		<ellipse fill="#AECC75" cx="627.258" cy="682.333" rx="21.324" ry="43.28"/>
		<path opacity="0.51" fill="#464950" enable-background="new    " d="M614.934,682.333c0-20.768,7.209-38.112,16.824-42.306
			c-1.416-0.633-2.949-0.965-4.5-0.974c-11.777,0-21.324,19.377-21.324,43.28s9.547,43.281,21.324,43.281
			c1.551-0.01,3.084-0.342,4.5-0.975C622.143,720.446,614.934,703.1,614.934,682.333z"/>
		<path fill="#464950" d="M627.258,730.613c-15.007,0-26.324-20.756-26.324-48.28s11.317-48.28,26.324-48.28
			s26.324,20.756,26.324,48.28S642.265,730.613,627.258,730.613z M627.258,644.053c-3.637,0-7.5,3.6-10.594,9.886
			c-3.695,7.5-5.73,17.584-5.73,28.394s2.035,20.894,5.73,28.395c3.1,6.282,6.957,9.885,10.594,9.885s7.5-3.6,10.593-9.886
			c3.7-7.5,5.731-17.584,5.731-28.394s-2.035-20.893-5.731-28.394C634.755,647.656,630.9,644.053,627.258,644.053z"/>
		<polygon fill="#F03A47" points="287.265,560 284.673,447 179.727,447 177.135,560 173.328,726 291.072,726 		"/>
		<rect x="240.5" y="590.75" fill="#DD2A40" width="47.109" height="6"/>
		<g opacity="0.85">
			<rect x="208.95" y="606.333" fill="#464950" width="30.3" height="6"/>
		</g>
		<g opacity="0.85">
			<rect x="274.152" y="619" fill="#464950" width="15.15" height="6"/>
		</g>
		<g opacity="0.85">
			<rect x="259.125" y="669" fill="#464950" width="13.541" height="6"/>
		</g>
		<rect x="272.667" y="651.159" fill="#DD2A40" width="14.942" height="6"/>
		<rect x="269.667" y="690.482" fill="#DD2A40" width="8.971" height="6"/>
		<polygon fill="#DD2A40" points="205.667,573 287.609,573 287.265,560 203.867,560 		"/>
		<polygon fill="#DD2A40" points="173.328,726 207.009,726 211.855,456 284.918,455.75 284.673,447 179.727,447 177.135,560 		"/>
		<circle fill="#50B893" cx="393.644" cy="431.143" r="82.649"/>
		<path opacity="0.55" fill="#464950" enable-background="new    " d="M326.173,431.143c0.005-42.701,32.539-78.368,75.06-82.288
			c-2.5-0.228-5.029-0.361-7.589-0.361c-45.646,0-82.65,37.004-82.65,82.65s37.004,82.65,82.65,82.65
			c2.56,0,5.088-0.134,7.589-0.361C358.711,509.513,326.177,473.845,326.173,431.143z"/>
		<path fill="#464950" d="M393.644,499.5c-2.761,0-5-2.239-5-5v-63.357c0-2.761,2.239-5,5-5s5,2.239,5,5V494.5
			C398.644,497.261,396.405,499.5,393.644,499.5z"/>
		<path fill="#464950" d="M393.649,467.822c-2.761,0.003-5.003-2.232-5.006-4.994c-0.002-1.747,0.908-3.369,2.4-4.277l30.357-18.488
			c2.344-1.461,5.427-0.745,6.888,1.599c1.461,2.344,0.745,5.427-1.599,6.888c-0.03,0.018-0.059,0.037-0.089,0.054l-30.356,18.488
			C395.462,467.569,394.565,467.822,393.649,467.822z"/>
		<path fill="#464950" d="M393.641,482.333c-1.126,0.001-2.219-0.381-3.1-1.082l-25.644-20.333
			c-2.148-1.735-2.484-4.883-0.749-7.031c1.713-2.121,4.809-2.479,6.961-0.805l25.644,20.334c2.163,1.716,2.526,4.861,0.809,7.025
			c-0.949,1.196-2.392,1.893-3.918,1.892H393.641z"/>
		<path fill="#464950" d="M393.644,518.792c-48.407,0-87.649-39.242-87.649-87.649s39.242-87.649,87.649-87.649
			s87.649,39.242,87.649,87.649l0,0C481.238,479.528,442.029,518.737,393.644,518.792z M393.644,353.492
			c-42.884,0-77.649,34.765-77.649,77.649s34.765,77.649,77.649,77.649s77.649-34.765,77.649-77.649v0
			c-0.05-42.863-34.786-77.599-77.649-77.647V353.492z"/>
		<circle fill="#429977" cx="338.022" cy="510.478" r="35.028"/>
		<path opacity="0.31" fill="#464950" enable-background="new    " d="M315.867,510.478c0.003-16.862,12.018-31.329,28.592-34.428
			c-19.014-3.565-37.318,8.958-40.883,27.973c-3.565,19.014,8.958,37.318,27.973,40.883c4.266,0.8,8.644,0.8,12.911,0
			C327.885,541.806,315.871,527.339,315.867,510.478z"/>
		<path fill="#464950" d="M375.015,543.334c-0.982,0-1.942-0.29-2.76-0.834L343.2,523.226c-2.301-1.526-2.93-4.629-1.403-6.93
			c1.526-2.301,4.629-2.93,6.93-1.404l29.058,19.274c2.302,1.525,2.932,4.628,1.406,6.93c-0.927,1.4-2.495,2.24-4.174,2.238
			L375.015,543.334z"/>
		<path fill="#464950" d="M338.022,550.506c-22.107,0-40.028-17.921-40.028-40.028s17.921-40.028,40.028-40.028
			s40.028,17.921,40.028,40.028C378.025,532.575,360.119,550.481,338.022,550.506z M338.022,480.45
			c-16.584,0-30.028,13.444-30.028,30.028c0,16.584,13.444,30.028,30.028,30.028s30.028-13.444,30.028-30.028v0
			C368.032,493.902,354.598,480.468,338.022,480.45L338.022,480.45z"/>
		<path fill="#464950" d="M291.072,731H173.328c-2.761,0.001-5.001-2.237-5.001-4.999c0-0.038,0-0.077,0.001-0.115l6.4-279
			c0.062-2.716,2.283-4.886,5-4.885h104.945c2.717-0.001,4.938,2.169,5,4.885l6.4,279c0.063,2.761-2.124,5.05-4.885,5.113
			C291.15,731,291.111,731,291.073,731H291.072z M178.444,721h107.512l-6.169-269h-95.173L178.444,721z"/>
		<polygon fill="#5A646D" points="302.994,561 161.407,561 177.892,536 286.508,536 		"/>
		<path fill="#464950" d="M302.994,566H161.407c-2.761,0.001-5.001-2.237-5.001-4.999c0-0.979,0.287-1.937,0.826-2.754l16.486-25
			c0.926-1.403,2.494-2.247,4.175-2.247h108.615c1.681,0,3.249,0.844,4.175,2.247l16.485,25c1.52,2.305,0.884,5.406-1.421,6.927
			C304.93,565.713,303.973,566,302.994,566z M170.694,556h123.014l-9.892-15H180.584L170.694,556z"/>
		<path fill="#F4FFC5" d="M210.2,471L210.2,471c6.904,0,12.5,5.596,12.5,12.5V511l0,0h-25l0,0v-27.5
			C197.7,476.596,203.296,471,210.2,471z"/>
		<path fill="#F4FFC5" d="M253.2,471h1c6.904,0,12.5,5.596,12.5,12.5c0,0,0,0,0,0V511l0,0h-26l0,0v-27.5
			C240.7,476.596,246.296,471,253.2,471z"/>
		<path fill="#B7C391" d="M210.2,471L210.2,471c-6.904,0-12.5,5.596-12.5,12.5v11c0-6.904,5.596-12.5,12.5-12.5l0,0
			c6.904,0,12.5,5.596,12.5,12.5v-11C222.7,476.596,217.104,471,210.2,471z"/>
		<path fill="#B7C391" d="M254.2,471h-1c-6.904,0-12.5,5.596-12.5,12.5v11c0-6.904,5.596-12.5,12.5-12.5h1
			c6.904,0,12.5,5.596,12.5,12.5c0,0,0,0,0,0v-11C266.7,476.596,261.104,471,254.2,471L254.2,471z"/>
		<path fill="#464950" d="M222.7,516h-25c-2.761,0-5-2.239-5-5v-27.5c0-9.665,7.835-17.5,17.5-17.5s17.5,7.835,17.5,17.5V511
			C227.7,513.761,225.461,516,222.7,516z M202.7,506h15v-22.5c0-4.142-3.358-7.5-7.5-7.5s-7.5,3.358-7.5,7.5V506z"/>
		<path fill="#464950" d="M266.7,516h-26c-2.761,0-5-2.239-5-5v-27.5c0.012-9.66,7.84-17.488,17.5-17.5h1
			c9.66,0.011,17.489,7.84,17.5,17.5V511C271.7,513.761,269.461,516,266.7,516z M245.7,506h16v-22.5c-0.004-4.14-3.36-7.496-7.5-7.5
			h-1c-4.14,0.004-7.496,3.36-7.5,7.5V506z"/>
		<polygon fill="#5A646D" points="297.191,447 167.209,447 232.2,383.571 		"/>
		<polygon fill="#4C555C" points="232.2,383.571 213.333,447 167.209,447 		"/>
		<path fill="#464950" d="M297.191,452H167.209c-2.761,0-5-2.239-4.999-5.001c0-1.347,0.544-2.637,1.507-3.577l64.991-63.429
			c1.942-1.895,5.042-1.895,6.984,0l64.991,63.429c1.976,1.929,2.014,5.094,0.085,7.071C299.828,451.456,298.538,452,297.191,452z
			 M179.491,442h105.418L232.2,390.558L179.491,442z"/>
		<rect x="203.867" y="625" fill="#F4FFC5" width="56.667" height="101"/>
		<rect x="203.867" y="625" fill="#B7C391" width="56.667" height="12.795"/>
		<rect x="204.867" y="625" fill="#B7C391" width="8.133" height="101"/>
		<path fill="#464950" d="M260.534,731h-56.667c-2.761,0-5-2.239-5-5V625c0-2.761,2.239-5,5-5h56.667c2.761,0,5,2.239,5,5v101
			C265.534,728.761,263.295,731,260.534,731z M208.867,721h46.667v-91h-46.667V721z"/>
		<path fill="#464950" d="M250.336,719c-1.564,0.001-2.986-0.91-3.638-2.332l-36.266-79c-0.905-2.015-0.004-4.383,2.011-5.287
			c1.991-0.894,4.331-0.026,5.259,1.949l36.267,79c0.922,2.007,0.043,4.382-1.965,5.305C251.481,718.875,250.912,719,250.336,719
			L250.336,719z"/>
		<path fill="#464950" d="M214.064,719c-2.209-0.002-3.999-1.794-3.997-4.003c0-0.576,0.125-1.144,0.365-1.667l36.266-79
			c0.922-2.008,3.297-2.888,5.305-1.966s2.888,3.297,1.966,5.305l-36.267,79C217.05,718.09,215.628,719.001,214.064,719z"/>
		<polygon fill="#F03A47" points="563.37,492.368 473.102,447 382.833,492.368 353.388,543.951 353.388,723.795 592.815,723.795 
			592.815,543.951 		"/>
		<polygon fill="#F03A47" points="563.37,492.368 473.102,447 382.833,492.368 353.388,543.951 353.388,723.795 592.815,723.795 
			592.815,543.951 		"/>
		<rect x="353.388" y="587.44" opacity="0.92" fill="#DD2A40" enable-background="new    " width="10.163" height="137.56"/>
		<polygon opacity="0.92" fill="#DD2A40" enable-background="new    " points="476.102,447 385.833,492.368 356.388,543.951 
			356.388,596.403 404.519,517.079 476.101,481.102 547.683,517.079 595.815,596.404 595.815,543.951 566.37,492.368 		"/>
		<g opacity="0.4">
			<path fill="#464950" d="M542.422,490.5H403.78c-0.828,0-1.5-0.672-1.5-1.5s0.672-1.5,1.5-1.5h138.642c0.828,0,1.5,0.672,1.5,1.5
				S543.25,490.5,542.422,490.5z"/>
			<path fill="#464950" d="M562.667,508.5H383.535c-0.828,0-1.5-0.672-1.5-1.5s0.672-1.5,1.5-1.5h179.132c0.828,0,1.5,0.672,1.5,1.5
				S563.495,508.5,562.667,508.5z"/>
			<path fill="#464950" d="M574,526.5H372.2c-0.828,0-1.5-0.672-1.5-1.5s0.672-1.5,1.5-1.5H574c0.828,0,1.5,0.672,1.5,1.5
				S574.828,526.5,574,526.5z"/>
			<path fill="#464950" d="M585.333,544.5H360.869c-0.828,0-1.5-0.672-1.5-1.5s0.672-1.5,1.5-1.5h224.464c0.828,0,1.5,0.672,1.5,1.5
				S586.161,544.5,585.333,544.5z"/>
			<path fill="#464950" d="M592.815,562.5H353.387c-0.828,0-1.5-0.672-1.5-1.5s0.672-1.5,1.5-1.5h239.428c0.828,0,1.5,0.672,1.5,1.5
				S593.643,562.5,592.815,562.5z"/>
			<path fill="#464950" d="M592.815,580.5H353.387c-0.828,0-1.5-0.672-1.5-1.5s0.672-1.5,1.5-1.5h239.428c0.828,0,1.5,0.672,1.5,1.5
				S593.643,580.5,592.815,580.5z"/>
			<path fill="#464950" d="M592.815,598.5H353.387c-0.828,0-1.5-0.672-1.5-1.5s0.672-1.5,1.5-1.5h239.428c0.828,0,1.5,0.672,1.5,1.5
				S593.643,598.5,592.815,598.5z"/>
			<path fill="#464950" d="M592.815,616.5H353.387c-0.828,0-1.5-0.672-1.5-1.5s0.672-1.5,1.5-1.5h239.428c0.828,0,1.5,0.672,1.5,1.5
				S593.643,616.5,592.815,616.5z"/>
			<path fill="#464950" d="M592.815,634.5H353.387c-0.828,0-1.5-0.672-1.5-1.5s0.672-1.5,1.5-1.5h239.428c0.828,0,1.5,0.672,1.5,1.5
				S593.643,634.5,592.815,634.5z"/>
			<path fill="#464950" d="M592.815,652.5H353.387c-0.828,0-1.5-0.672-1.5-1.5s0.672-1.5,1.5-1.5h239.428c0.828,0,1.5,0.672,1.5,1.5
				S593.643,652.5,592.815,652.5z"/>
			<path fill="#464950" d="M592.815,670.5H353.387c-0.828,0-1.5-0.672-1.5-1.5s0.672-1.5,1.5-1.5h239.428c0.828,0,1.5,0.672,1.5,1.5
				S593.643,670.5,592.815,670.5z"/>
			<path fill="#464950" d="M592.815,688.5H353.387c-0.828,0-1.5-0.672-1.5-1.5s0.672-1.5,1.5-1.5h239.428c0.828,0,1.5,0.672,1.5,1.5
				S593.643,688.5,592.815,688.5z"/>
			<path fill="#464950" d="M592.815,706.5H353.387c-0.828,0-1.5-0.672-1.5-1.5s0.672-1.5,1.5-1.5h239.428c0.828,0,1.5,0.672,1.5,1.5
				S593.643,706.5,592.815,706.5z"/>
		</g>
		<rect x="353.388" y="587.44" fill="#DD2A40" width="239.428" height="9.81"/>
		<g opacity="0.97">
			<path fill="#464950" d="M542.422,493.5H403.78c-0.828,0-1.5-0.672-1.5-1.5s0.672-1.5,1.5-1.5h138.642c0.828,0,1.5,0.672,1.5,1.5
				S543.25,493.5,542.422,493.5z"/>
			<path fill="#464950" d="M562.667,511.5H383.535c-0.828,0-1.5-0.672-1.5-1.5s0.672-1.5,1.5-1.5h179.132c0.828,0,1.5,0.672,1.5,1.5
				S563.495,511.5,562.667,511.5z"/>
			<path fill="#464950" d="M574,529.5H372.2c-0.828,0-1.5-0.672-1.5-1.5s0.672-1.5,1.5-1.5H574c0.828,0,1.5,0.672,1.5,1.5
				S574.828,529.5,574,529.5z"/>
			<path fill="#464950" d="M585.333,547.5H360.869c-0.828,0-1.5-0.672-1.5-1.5s0.672-1.5,1.5-1.5h224.464c0.828,0,1.5,0.672,1.5,1.5
				S586.161,547.5,585.333,547.5z"/>
			<path fill="#464950" d="M592.815,565.5H353.387c-0.828,0-1.5-0.672-1.5-1.5s0.672-1.5,1.5-1.5h239.428c0.828,0,1.5,0.672,1.5,1.5
				S593.643,565.5,592.815,565.5z"/>
			<path fill="#464950" d="M592.815,583.5H353.387c-0.828,0-1.5-0.672-1.5-1.5s0.672-1.5,1.5-1.5h239.428c0.828,0,1.5,0.672,1.5,1.5
				S593.643,583.5,592.815,583.5z"/>
			<path fill="#464950" d="M592.815,601.5H353.387c-0.828,0-1.5-0.672-1.5-1.5s0.672-1.5,1.5-1.5h239.428c0.828,0,1.5,0.672,1.5,1.5
				S593.643,601.5,592.815,601.5z"/>
			<path fill="#464950" d="M592.815,619.5H353.387c-0.828,0-1.5-0.672-1.5-1.5s0.672-1.5,1.5-1.5h239.428c0.828,0,1.5,0.672,1.5,1.5
				S593.643,619.5,592.815,619.5z"/>
			<path fill="#464950" d="M592.815,637.5H353.387c-0.828,0-1.5-0.672-1.5-1.5s0.672-1.5,1.5-1.5h239.428c0.828,0,1.5,0.672,1.5,1.5
				S593.643,637.5,592.815,637.5z"/>
			<path fill="#464950" d="M592.815,655.5H353.387c-0.828,0-1.5-0.672-1.5-1.5s0.672-1.5,1.5-1.5h239.428c0.828,0,1.5,0.672,1.5,1.5
				S593.643,655.5,592.815,655.5z"/>
			<path fill="#464950" d="M592.815,673.5H353.387c-0.828,0-1.5-0.672-1.5-1.5s0.672-1.5,1.5-1.5h239.428c0.828,0,1.5,0.672,1.5,1.5
				S593.643,673.5,592.815,673.5z"/>
			<path fill="#464950" d="M592.815,691.5H353.387c-0.828,0-1.5-0.672-1.5-1.5s0.672-1.5,1.5-1.5h239.428c0.828,0,1.5,0.672,1.5,1.5
				S593.643,691.5,592.815,691.5z"/>
			<path fill="#464950" d="M592.815,709.5H353.387c-0.828,0-1.5-0.672-1.5-1.5s0.672-1.5,1.5-1.5h239.428c0.828,0,1.5,0.672,1.5,1.5
				S593.643,709.5,592.815,709.5z"/>
		</g>
		<path fill="#464950" d="M592.815,728.8H353.388c-2.761,0-5-2.239-5-5V543.951c0-0.869,0.226-1.723,0.657-2.478l29.446-51.583
			c0.489-0.855,1.219-1.547,2.1-1.989l90.268-45.368c1.413-0.71,3.078-0.71,4.491,0l90.265,45.367
			c0.881,0.442,1.611,1.134,2.1,1.989l29.445,51.583c0.431,0.755,0.657,1.609,0.657,2.478V723.8c0,2.761-2.239,5-5,5
			C592.816,728.8,592.816,728.8,592.815,728.8z M358.388,718.8h229.427V545.277l-28.039-49.119L473.1,452.6l-86.675,43.562
			l-28.039,49.119L358.388,718.8z"/>
		<rect x="403.781" y="629.5" fill="#F4FFC5" width="69.32" height="94.295"/>
		<rect x="403.781" y="629.5" fill="#F4FFC5" width="69.32" height="94.295"/>
		<rect x="403.781" y="629.5" fill="#B7C391" width="69.32" height="13.5"/>
		<rect x="403.781" y="629.5" fill="#B7C391" width="9.219" height="93.167"/>
		<rect x="473.101" y="629.5" fill="#F4FFC5" width="69.32" height="94.295"/>
		<rect x="473.101" y="629.5" fill="#B7C391" width="69.32" height="13.5"/>
		<rect x="473.102" y="629.5" fill="#B7C391" width="9.219" height="93.167"/>
		<path fill="#464950" d="M473.1,728.8h-69.319c-2.761,0-5-2.239-5-5v-94.3c0-2.761,2.239-5,5-5H473.1c2.761,0,5,2.239,5,5v94.3
			C478.1,726.561,475.861,728.8,473.1,728.8z M408.779,718.8H468.1v-84.3h-59.319L408.779,718.8z"/>
		<path fill="#464950" d="M542.422,728.8H473.1c-2.761,0-5-2.239-5-5v-94.3c0-2.761,2.239-5,5-5h69.32c2.761,0,5,2.239,5,5v94.3
			C547.42,726.561,545.183,728.799,542.422,728.8z M478.102,718.8h59.32v-84.3H478.1L478.102,718.8z"/>
		<rect x="443.101" y="507" fill="#F4FFC5" width="60" height="60"/>
		<rect x="443.101" y="507" fill="#F4FFC5" width="60" height="60"/>
		<rect x="443.101" y="507" fill="#B7C391" width="60" height="10.5"/>
		<rect x="443.101" y="537.5" fill="#B7C391" width="60" height="8.006"/>
		<path fill="#464950" d="M503.1,572h-60c-2.761,0-5-2.239-5-5v-60c0-2.761,2.239-5,5-5h60c2.761,0,5,2.239,5,5v60
			C508.1,569.761,505.861,572,503.1,572z M448.1,562h50v-50h-50V562z"/>
		<polygon fill="#A58167" points="611.401,576.51 597.501,584.44 551.871,504.5 473.101,464.91 394.331,504.5 348.701,584.44 
			334.801,576.51 382.831,492.37 473.101,447 563.371,492.37 		"/>
		<path fill="#464950" d="M597.506,589.441c-1.797,0.002-3.457-0.961-4.348-2.522l-44.881-78.629L473.1,470.506l-75.175,37.784
			l-44.882,78.629c-1.369,2.397-4.421,3.232-6.819,1.864l-13.9-7.93c-2.399-1.368-3.234-4.422-1.866-6.82
			c0-0.001,0.001-0.001,0.001-0.002l48.031-84.14c0.489-0.855,1.219-1.547,2.1-1.988l90.27-45.37c1.413-0.71,3.079-0.71,4.492,0
			l90.269,45.37c0.88,0.441,1.611,1.133,2.1,1.988l48.03,84.14c1.369,2.398,0.535,5.452-1.863,6.821
			c-0.001,0-0.001,0.001-0.002,0.001l-13.9,7.93C599.231,589.215,598.376,589.442,597.506,589.441z M473.1,459.91
			c0.78,0,1.549,0.183,2.246,0.533l78.769,39.59c0.88,0.441,1.611,1.133,2.1,1.988l43.151,75.6l5.215-2.974l-44.8-78.486
			L473.1,452.6l-86.675,43.56l-44.8,78.486l5.214,2.974l43.152-75.6c0.489-0.855,1.219-1.547,2.1-1.988l78.769-39.59
			C471.555,460.093,472.322,459.911,473.1,459.91z"/>
		<ellipse fill="#AECC75" cx="741.585" cy="565.515" rx="46.415" ry="83.889"/>
		<path opacity="0.51" fill="#464950" enable-background="new    " d="M707.626,566.515c0-43.782,18.56-79.71,42.233-83.534
			c-2.669-0.886-5.462-1.343-8.274-1.355c-25.634,0-46.415,37.558-46.415,83.889s20.781,83.885,46.415,83.885
			c1.401-0.007,2.8-0.125,4.182-0.355C724.083,641.993,707.626,607.739,707.626,566.515z"/>
		<path fill="#464950" d="M741.585,654.4c-28.831,0-51.415-39.045-51.415-88.889s22.584-88.89,51.415-88.89S793,515.67,793,565.515
			S770.416,654.4,741.585,654.4z M741.585,486.621c-22.449,0-41.415,36.127-41.415,78.89s18.966,78.889,41.415,78.889
			S783,608.277,783,565.515s-18.966-78.89-41.415-78.89V486.621z"/>
		<path fill="#464950" d="M741.585,728.8c-2.761,0-5-2.239-5-5V548.667c0-2.761,2.239-5,5-5s5,2.239,5,5V723.8
			C746.585,726.561,744.346,728.8,741.585,728.8z"/>
		<path fill="#72B579" d="M899.16,489.475c9.309,32.474,9.379,62.887-1.451,86.747c-10.479,23.6-31.858,40.653-57.331,40.481
			c-25.471,0.171-46.851-16.878-57.33-40.481c-10.83-23.86-10.759-54.272-1.451-86.747c21.476-64.87,37.179-119.528,58.781-119.526
			S877.684,424.605,899.16,489.475z"/>
		<circle opacity="0.51" fill="#464950" enable-background="new    " cx="818.067" cy="567" r="8.122"/>
		<path opacity="0.38" fill="#464950" enable-background="new    " d="M798.587,576.03c-11.37-25.05-11.295-56.979-1.523-91.074
			c16.763-51.2,30.128-101.4,44.811-109.956c-0.629-0.094-0.858-5.051-1.5-5.051c-21.6,0-37.305,54.656-58.781,119.526
			c-9.308,32.475-9.379,62.887,1.451,86.747c10.479,23.6,31.859,40.652,57.33,40.481c1.078,0.007,2.145-0.028,3.208-0.081
			C823.669,611.409,807.43,595.946,798.587,576.03z"/>
		<path fill="#464950" d="M840.76,621.7h-0.828c-25.994,0-49.539-16.615-61.454-43.452c-11.033-24.306-11.623-55.493-1.688-90.154
			c0.019-0.065,0.039-0.13,0.06-0.194c1.987-6,3.928-11.902,5.821-17.705c20.017-61.1,34.481-105.249,57.7-105.249l0,0
			c23.226,0,37.688,44.145,57.706,105.248c1.896,5.791,3.836,11.693,5.821,17.706c0.021,0.064,0.041,0.129,0.06,0.194
			c9.935,34.659,9.346,65.846-1.7,90.191C890.364,605.087,866.819,621.7,840.76,621.7z M840.344,611.7h0.346
			c22.116,0,42.164-14.344,52.449-37.511c10.062-22.168,10.486-50.937,1.242-83.243c-1.98-5.978-3.913-11.858-5.8-17.639
			c-9.418-28.749-17.551-53.578-25.893-71.666c-8.167-17.714-15.674-26.7-22.309-26.695s-14.143,8.981-22.311,26.695
			c-8.341,18.089-16.475,42.918-25.894,71.668c-1.89,5.769-3.823,11.648-5.8,17.637c-9.243,32.308-8.819,61.077,1.225,83.206
			c10.3,23.2,30.351,37.548,52.4,37.548H840.344z"/>
		<path fill="#AECC75" d="M284.265,723.8c0.09-14.71,12.089-26.562,26.799-26.472c14.583,0.09,26.382,11.889,26.472,26.472H284.265z
			"/>
		<path fill="#464950" d="M337.536,728.8h-53.271c-2.761,0-5-2.239-5-5c-0.098-17.472,13.986-31.715,31.457-31.814
			c17.472-0.098,31.715,13.985,31.814,31.457c0.001,0.119,0.001,0.238,0,0.356C342.536,726.561,340.297,728.8,337.536,728.8z
			 M289.848,718.8h42.1c-2.769-11.626-14.439-18.805-26.064-16.036C297.941,704.656,291.74,710.858,289.848,718.8z"/>
		<path fill="#AECC75" d="M91.818,725.8c0.09-14.71,12.088-26.563,26.798-26.473C133.2,699.417,145,711.217,145.089,725.8H91.818z"/>
		<path fill="#464950" d="M145.089,730.8H91.818c-2.761,0-5-2.239-5-5c-0.098-17.472,13.986-31.715,31.458-31.813
			c17.472-0.098,31.715,13.986,31.813,31.458c0.001,0.118,0.001,0.237,0,0.355C150.089,728.561,147.85,730.8,145.089,730.8z
			 M97.4,720.8h42.105c-2.769-11.626-14.439-18.805-26.064-16.036c-7.942,1.892-14.144,8.093-16.036,16.036H97.4z"/>
		<path fill="#464950" d="M594.814,589.44h-30.481c-2.761,0-5-2.239-5-5s2.239-5,5-5h30.481c2.761,0,5,2.239,5,5
			S597.575,589.44,594.814,589.44z"/>
		<path fill="#464950" d="M549,589.44h-12c-2.761,0-5-2.239-5-5s2.239-5,5-5h12c2.761,0,5,2.239,5,5S551.761,589.44,549,589.44z"/>
		<path fill="#464950" d="M523.667,589.44H348.7c-2.761,0-5-2.239-5-5s2.239-5,5-5h174.967c2.761,0,5,2.239,5,5
			S526.428,589.44,523.667,589.44z"/>
		<path fill="#464950" d="M473.1,571.667c-1.657,0-3-1.343-3-3V508c0-1.657,1.343-3,3-3s3,1.343,3,3l0,0v60.667
			C476.1,570.324,474.757,571.667,473.1,571.667z"/>
		<path fill="#464950" d="M501.1,540h-56c-1.657,0-3-1.343-3-3s1.343-3,3-3l0,0h56c1.657,0,3,1.343,3,3S502.757,540,501.1,540z"/>
		<path fill="#464950" d="M460.782,714.3c-1.341,0.001-2.594-0.67-3.336-1.788l-44.674-67.295c-1.239-1.829-0.761-4.316,1.068-5.555
			c1.829-1.239,4.316-0.761,5.555,1.068c0.014,0.021,0.028,0.042,0.042,0.063l44.674,67.295c1.222,1.841,0.72,4.323-1.121,5.545
			C462.336,714.067,461.568,714.299,460.782,714.3L460.782,714.3z"/>
		<path fill="#464950" d="M416.1,714.3c-2.209-0.002-3.998-1.795-3.996-4.004c0.001-0.786,0.233-1.554,0.667-2.208l44.674-67.295
			c1.204-1.852,3.682-2.377,5.534-1.173c1.852,1.204,2.377,3.682,1.173,5.534c-0.014,0.021-0.028,0.042-0.042,0.063l-44.674,67.295
			C418.694,713.63,417.441,714.301,416.1,714.3z"/>
		<path fill="#464950" d="M530.1,714.3c-1.342,0.001-2.595-0.67-3.337-1.788l-44.674-67.295c-1.239-1.829-0.761-4.316,1.068-5.555
			c1.829-1.239,4.316-0.761,5.555,1.068c0.014,0.021,0.028,0.042,0.042,0.063l44.675,67.295c1.222,1.841,0.72,4.323-1.121,5.545
			C531.654,714.067,530.886,714.299,530.1,714.3z"/>
		<path fill="#464950" d="M485.421,714.3c-2.209-0.002-3.998-1.795-3.996-4.004c0.001-0.786,0.233-1.554,0.667-2.208l44.674-67.295
			c1.222-1.841,3.704-2.343,5.545-1.121c1.841,1.222,2.343,3.704,1.121,5.545l0,0l-44.675,67.295
			C488.015,713.63,486.762,714.301,485.421,714.3z"/>
		<path fill="#464950" d="M396.644,820.75H257.5c-2.761,0-5-2.239-5-5s2.239-5,5-5h139.144c2.761,0,5,2.239,5,5
			S399.405,820.75,396.644,820.75z"/>
		<path fill="#464950" d="M235.5,820.75H221c-2.761,0-5-2.239-5-5s2.239-5,5-5h14.5c2.761,0,5,2.239,5,5
			S238.261,820.75,235.5,820.75z"/>
		<path fill="#464950" d="M396.644,799.167H276.22c-1.933,0-3.5-1.567-3.5-3.5v-7c0-1.933,1.567-3.5,3.5-3.5l0,0h120.424
			c1.933,0,3.5,1.567,3.5,3.5l0,0v7C400.144,797.6,398.577,799.167,396.644,799.167z M279.72,792.167L279.72,792.167z"/>
		<path fill="#464950" d="M396.644,776H276.22c-1.933,0-3.5-1.567-3.5-3.5v-7c0-1.933,1.567-3.5,3.5-3.5l0,0h120.424
			c1.933,0,3.5,1.567,3.5,3.5l0,0v7C400.144,774.433,398.577,776,396.644,776z M279.72,769L279.72,769z"/>
		<polygon fill="#A58167" points="347.301,815.75 328.301,815.75 328.301,742.828 337.801,732.25 347.301,742.828 		"/>
		<polygon opacity="0.47" fill="#A58167" enable-background="new    " points="337.301,747.828 345.597,738.59 340.801,733.25 
			331.301,743.828 331.301,816.75 337.301,816.75 		"/>
		<path fill="#464950" d="M347.3,820.75h-19c-2.761,0-5-2.239-5-5v-72.922c0-1.233,0.456-2.423,1.28-3.341l9.5-10.578
			c1.845-2.055,5.006-2.224,7.061-0.379c0.133,0.12,0.26,0.246,0.379,0.379l9.5,10.578c0.824,0.918,1.28,2.108,1.28,3.341v72.922
			C352.3,818.511,350.061,820.75,347.3,820.75z M333.3,810.75h9v-66.006l-4.5-5.011l-4.5,5.011V810.75z"/>
		<polygon fill="#A58167" points="385.55,815.75 366.55,815.75 366.55,742.828 376.05,732.25 385.55,742.828 		"/>
		<polygon opacity="0.47" fill="#A58167" enable-background="new    " points="375.55,747.828 383.846,738.59 379.05,733.25 
			369.55,743.828 369.55,816.75 375.55,816.75 		"/>
		<path fill="#464950" d="M385.55,820.75h-19c-2.761,0-5-2.239-5-5v-72.922c0-1.233,0.456-2.423,1.28-3.341l9.5-10.578
			c1.845-2.055,5.006-2.225,7.061-0.38c0.133,0.12,0.26,0.247,0.38,0.38l9.5,10.578c0.823,0.918,1.279,2.108,1.279,3.341v72.922
			C390.55,818.511,388.311,820.75,385.55,820.75z M371.55,810.75h9v-66.006l-4.5-5.011l-4.5,5.011V810.75z"/>
		<polygon fill="#A58167" points="308.572,815.75 289.572,815.75 289.572,742.828 299.072,732.25 308.572,742.828 		"/>
		<polygon fill="#A58167" points="308.572,815.75 289.572,815.75 289.572,742.828 299.072,732.25 308.572,742.828 		"/>
		<polygon opacity="0.47" fill="#A58167" enable-background="new    " points="298.572,747.828 306.869,738.59 302.072,733.25 
			292.572,743.828 292.572,816.75 298.572,816.75 		"/>
		<path fill="#464950" d="M308.572,820.75h-19c-2.761,0-5-2.239-5-5v-72.922c0-1.233,0.456-2.423,1.28-3.341l9.5-10.578
			c1.845-2.055,5.006-2.224,7.061-0.379c0.133,0.12,0.26,0.246,0.379,0.379l9.5,10.578c0.824,0.918,1.28,2.108,1.28,3.341v72.922
			C313.572,818.511,311.333,820.75,308.572,820.75z M294.572,810.75h9v-66.006l-4.5-5.011l-4.5,5.011V810.75z"/>
		<circle opacity="0.76" fill="#464950" enable-background="new    " cx="415.39" cy="391.64" r="6.568"/>
		<circle opacity="0.76" fill="#464950" enable-background="new    " cx="373.143" cy="383.571" r="12.251"/>
		<circle opacity="0.76" fill="#464950" enable-background="new    " cx="368" cy="431.143" r="3.821"/>
		<circle opacity="0.67" fill="#464950" enable-background="new    " cx="342.848" cy="422.816" r="8.047"/>
		<circle opacity="0.67" fill="#464950" enable-background="new    " cx="386.719" cy="409.481" r="6.925"/>
		<circle opacity="0.67" fill="#464950" enable-background="new    " cx="443.5" cy="426" r="3.184"/>
		<circle fill="#62A366" cx="893.464" cy="477" r="22.833"/>
		<path opacity="0.3" fill="#464950" enable-background="new    " d="M882.881,477c0.001-10.828,7.605-20.168,18.208-22.364
			c-12.351-2.543-24.425,5.409-26.968,17.76c-2.543,12.351,5.409,24.425,17.76,26.968c3.038,0.625,6.171,0.625,9.208,0
			C890.486,497.168,882.882,487.828,882.881,477z"/>
		<path fill="#464950" d="M893.464,504.833c-15.372-0.002-27.832-12.464-27.83-27.836s12.464-27.832,27.836-27.83
			c15.371,0.002,27.83,12.462,27.83,27.833C921.283,492.366,908.83,504.818,893.464,504.833z M893.464,459.167
			c-9.849,0.002-17.832,7.987-17.83,17.836s7.987,17.832,17.836,17.83c9.848-0.002,17.83-7.985,17.83-17.833
			C911.289,467.155,903.31,459.176,893.464,459.167z"/>
		<path fill="#464950" d="M840.379,728.8c-2.761,0-5-2.239-5-5V498c0-2.761,2.239-5,5-5s5,2.239,5,5v225.8
			C845.379,726.561,843.14,728.8,840.379,728.8z"/>
		<path fill="#72B579" d="M778.589,724.667c-0.126-29.197,23.441-52.968,52.638-53.093c29.197-0.126,52.968,23.441,53.093,52.638
			c0.001,0.152,0.001,0.304,0,0.456H778.589z"/>
		<path fill="#72B579" d="M778.589,724.667c-0.126-29.197,23.441-52.968,52.638-53.093c29.197-0.126,52.968,23.441,53.093,52.638
			c0.001,0.152,0.001,0.304,0,0.456H778.589z"/>
		<path opacity="0.38" fill="#464950" enable-background="new    " d="M840.788,672.639c-28.713-5.177-56.185,13.903-61.362,42.616
			c-0.56,3.106-0.84,6.256-0.838,9.412h18.667C797.26,699.073,815.596,677.158,840.788,672.639z"/>
		<path fill="#464950" d="M884.32,729.667H778.589c-2.761,0-5-2.239-5-5c-0.132-31.958,25.669-57.972,57.627-58.104
			c31.958-0.132,57.972,25.669,58.104,57.627c0.001,0.159,0.001,0.318,0,0.477C889.32,727.428,887.081,729.667,884.32,729.667z
			 M783.848,719.667h95.214c-2.762-26.293-26.316-45.368-52.609-42.605C803.974,679.423,786.21,697.187,783.848,719.667z"/>
		<path fill="#464950" d="M840.381,595c-2.761,0.001-5.001-2.237-5.002-4.998c-0.001-1.458,0.635-2.844,1.741-3.794l30.252-26
			c2.094-1.8,5.251-1.561,7.051,0.533c1.8,2.094,1.561,5.251-0.533,7.051l-30.252,26C842.732,594.572,841.576,595.001,840.381,595z"/>
		<path fill="#464950" d="M840.38,551c-1.358,0.002-2.658-0.55-3.6-1.528l-28.38-29.41c-1.918-1.988-1.86-5.154,0.128-7.072
			c1.988-1.918,5.154-1.86,7.072,0.128l28.379,29.41c1.918,1.987,1.861,5.152-0.126,7.07
			C842.921,550.498,841.675,551.001,840.38,551L840.38,551z"/>
		<path fill="#464950" d="M741.586,629c-2.761,0-5-2.238-5.001-4.999c0-1.402,0.588-2.739,1.622-3.687l18.911-17.333
			c2.017-1.886,5.181-1.78,7.067,0.237s1.78,5.181-0.237,7.067c-0.025,0.023-0.049,0.046-0.074,0.068l-18.911,17.333
			C744.042,628.532,742.837,629.001,741.586,629z"/>
		<path fill="#464950" d="M741.585,598.333c-1.331,0.002-2.607-0.529-3.544-1.473L718.3,577.027
			c-1.954-1.951-1.956-5.117-0.005-7.071c1.951-1.954,5.117-1.956,7.071-0.005c0.007,0.007,0.014,0.014,0.022,0.022l19.738,19.833
			c1.948,1.957,1.94,5.123-0.017,7.071c-0.937,0.932-2.205,1.456-3.527,1.456L741.585,598.333z"/>
		<circle opacity="0.51" fill="#464950" enable-background="new    " cx="762.917" cy="575.436" r="6.918"/>
		<circle opacity="0.51" fill="#464950" enable-background="new    " cx="720.915" cy="542.132" r="3.335"/>
		<circle opacity="0.43" fill="#C7CAD1" enable-background="new    " cx="739.133" cy="517.418" r="7.418"/>
		<circle opacity="0.43" fill="#C7CAD1" enable-background="new    " cx="843.586" cy="439.584" r="5.416"/>
		<circle opacity="0.51" fill="#464950" enable-background="new    " cx="857.977" cy="503.486" r="5.486"/>
		<circle opacity="0.43" fill="#C7CAD1" enable-background="new    " cx="826.189" cy="468.621" r="8.122"/>
		<circle opacity="0.43" fill="#C7CAD1" enable-background="new    " cx="869.334" cy="528.919" r="7.666"/>
		<circle opacity="0.43" fill="#C7CAD1" enable-background="new    " cx="757.338" cy="543.386" r="4.588"/>
		<circle opacity="0.35" fill="#C7CAD1" enable-background="new    " cx="722.419" cy="595.831" r="3.419"/>
		<path fill="#AECC75" d="M853.372,724.667c-0.016-17.579,14.222-31.843,31.801-31.859c17.579-0.016,31.843,14.222,31.859,31.801
			c0,0.019,0,0.038,0,0.057H853.372z"/>
		<path opacity="0.51" fill="#464950" enable-background="new    " d="M893.831,694.03c-16.919-4.767-34.499,5.083-39.266,22.002
			c-0.792,2.81-1.193,5.716-1.193,8.635h17.259C870.634,710.413,880.111,697.897,893.831,694.03z"/>
		<path fill="#464950" d="M917.031,729.667h-63.659c-2.761,0-5-2.239-5-5c-0.106-20.34,16.297-36.916,36.637-37.022
			c20.34-0.106,36.916,16.297,37.022,36.637c0.001,0.128,0.001,0.257,0,0.385C922.031,727.428,919.792,729.667,917.031,729.667z
			 M858.839,719.667h52.725c-2.763-14.56-16.806-24.123-31.365-21.36C869.367,700.363,860.895,708.835,858.839,719.667z"/>
		<path fill="#464950" d="M883.75,820.75H864c-2.761,0-5-2.239-5-5s2.239-5,5-5h19.75c2.761,0,5,2.239,5,5
			S886.511,820.75,883.75,820.75z"/>
		<path fill="#464950" d="M902.625,820.75h-4.375c-2.761,0-5-2.239-5-5s2.239-5,5-5h4.375c2.761,0,5,2.239,5,5
			S905.386,820.75,902.625,820.75z"/>
		<path fill="#464950" d="M848.5,820.75h-282c-2.761,0-5-2.239-5-5s2.239-5,5-5h282c2.761,0,5,2.239,5,5
			S851.261,820.75,848.5,820.75z"/>
		<path fill="#464950" d="M549,820.75h-11c-2.761,0-5-2.239-5-5s2.239-5,5-5h11c2.761,0,5,2.239,5,5S551.761,820.75,549,820.75z"/>
		<path fill="#464950" d="M554.283,759.5h286.096c2.209,0,4,1.791,4,4v4c0,2.209-1.791,4-4,4H554.283c-2.209,0-4-1.791-4-4v-4
			C550.283,761.291,552.074,759.5,554.283,759.5z"/>
		<path fill="#464950" d="M557.283,782.667h286.096c2.209,0,4,1.791,4,4v7c0,2.209-1.791,4-4,4H557.283c-2.209,0-4-1.791-4-4v-7
			C553.283,784.458,555.074,782.667,557.283,782.667z"/>
		<polygon fill="#A58167" points="590.934,815.75 571.934,815.75 571.934,742.828 581.434,732.25 590.934,742.828 		"/>
		<polygon opacity="0.47" fill="#A58167" enable-background="new    " points="580.934,747.828 589.23,738.59 584.434,733.25 
			574.934,743.828 574.934,816.75 580.934,816.75 		"/>
		<path fill="#464950" d="M590.934,820.75h-19c-2.761,0-5-2.239-5-5v-72.922c0-1.233,0.456-2.423,1.28-3.341l9.5-10.578
			c1.845-2.054,5.007-2.224,7.061-0.378c0.133,0.119,0.259,0.245,0.378,0.378l9.5,10.578c0.825,0.918,1.281,2.107,1.281,3.341
			v72.922C595.934,818.511,593.695,820.75,590.934,820.75L590.934,820.75z M576.934,810.75h9v-66.006l-4.5-5.011l-4.5,5.011V810.75z
			"/>
		<polygon fill="#A58167" points="686.542,815.75 667.542,815.75 667.542,742.828 677.042,732.25 686.542,742.828 		"/>
		<polygon opacity="0.47" fill="#A58167" enable-background="new    " points="676.542,747.828 684.838,738.59 680.042,733.25 
			670.542,743.828 670.542,816.75 676.542,816.75 		"/>
		<polygon fill="#A58167" points="734.346,815.75 715.346,815.75 715.346,742.828 724.846,732.25 734.346,742.828 		"/>
		<polygon opacity="0.47" fill="#A58167" enable-background="new    " points="723.346,746.828 731.643,737.59 726.846,732.25 
			717.346,742.828 717.346,815.75 723.346,815.75 		"/>
		<polygon fill="#A58167" points="638.738,815.75 619.738,815.75 619.738,742.828 629.238,732.25 638.738,742.828 		"/>
		<polygon opacity="0.47" fill="#A58167" enable-background="new    " points="628.738,747.828 637.034,738.59 632.238,733.25 
			622.738,743.828 622.738,816.75 628.738,816.75 		"/>
		<path fill="#464950" d="M686.542,820.75h-19c-2.761,0-5-2.239-5-5v-72.922c0-1.233,0.456-2.423,1.28-3.341l9.5-10.578
			c1.845-2.055,5.006-2.224,7.061-0.379c0.133,0.12,0.26,0.246,0.379,0.379l9.5,10.578c0.824,0.918,1.28,2.108,1.28,3.341v72.922
			C691.542,818.511,689.303,820.75,686.542,820.75L686.542,820.75z M672.542,810.75h9v-66.006l-4.5-5.011l-4.5,5.011V810.75z"/>
		<path fill="#464950" d="M734.347,820.75h-19c-2.761,0-5-2.239-5-5v-72.922c0-1.233,0.456-2.423,1.28-3.341l9.5-10.578
			c1.845-2.054,5.007-2.224,7.061-0.378c0.133,0.119,0.259,0.245,0.378,0.378l9.5,10.578c0.825,0.918,1.281,2.107,1.281,3.341
			v72.922C739.347,818.511,737.108,820.75,734.347,820.75L734.347,820.75z M720.347,810.75h9v-66.006l-4.5-5.011l-4.5,5.011V810.75z
			"/>
		<path fill="#464950" d="M638.738,820.75h-19c-2.761,0-5-2.239-5-5v-72.922c0-1.234,0.456-2.423,1.281-3.341l9.5-10.578
			c1.845-2.054,5.007-2.224,7.061-0.378c0.133,0.119,0.259,0.245,0.378,0.378l9.5,10.578c0.824,0.918,1.28,2.108,1.28,3.341v72.922
			C643.738,818.511,641.499,820.75,638.738,820.75L638.738,820.75z M624.738,810.75h9v-66.006l-4.5-5.011l-4.5,5.011V810.75z"/>
		<polygon fill="#A58167" points="828.004,815.75 809.004,815.75 809.004,742.828 818.504,732.25 828.004,742.828 		"/>
		<polygon opacity="0.47" fill="#A58167" enable-background="new    " points="818.004,747.828 826.3,738.59 821.504,733.25 
			812.004,743.828 812.004,816.75 818.004,816.75 		"/>
		<path fill="#464950" d="M828,820.75h-19c-2.761,0-5-2.239-5-5v-72.922c0-1.233,0.456-2.423,1.28-3.341l9.5-10.578
			c1.845-2.055,5.006-2.224,7.061-0.379c0.133,0.12,0.26,0.246,0.379,0.379l9.5,10.578c0.824,0.918,1.28,2.108,1.28,3.341v72.922
			C833,818.511,830.761,820.75,828,820.75L828,820.75z M814,810.75h9v-66.006l-4.5-5.011l-4.5,5.011V810.75z"/>
		<polygon fill="#A58167" points="781.589,815.75 762.589,815.75 762.589,742.828 772.089,732.25 781.589,742.828 		"/>
		<polygon opacity="0.47" fill="#A58167" enable-background="new    " points="771.589,747.828 779.885,738.59 775.089,733.25 
			765.589,743.828 765.589,816.75 771.589,816.75 		"/>
		<path fill="#464950" d="M781.589,820.75h-19c-2.761,0-5-2.239-5-5v-72.922c0-1.233,0.456-2.423,1.28-3.341l9.5-10.578
			c1.845-2.055,5.006-2.224,7.061-0.379c0.133,0.12,0.26,0.246,0.379,0.379l9.5,10.578c0.824,0.918,1.28,2.108,1.28,3.341v72.922
			C786.589,818.511,784.35,820.75,781.589,820.75L781.589,820.75z M767.589,810.75h9v-66.006l-4.5-5.011l-4.5,5.011V810.75z"/>
		<circle opacity="0.67" fill="#464950" enable-background="new    " cx="345.961" cy="500" r="3.481"/>
		<circle opacity="0.76" fill="#464950" enable-background="new    " cx="326.509" cy="507.511" r="5.817"/>
		<circle opacity="0.43" fill="#C7CAD1" enable-background="new    " cx="639.343" cy="678" r="4.333"/>
		<circle opacity="0.51" fill="#464950" enable-background="new    " cx="627.258" cy="665.84" r="3.494"/>
		<path fill="#464950" d="M945.568,731H65.275c-2.761,0-5-2.239-5-5s2.239-5,5-5h880.293c2.761,0,5,2.239,5,5
			S948.329,731,945.568,731z"/>
		<path fill="#AECC75" d="M715.645,725.243c-1.272-11.625,7.121-22.079,18.746-23.351c11.625-1.272,22.079,7.121,23.351,18.746
			c0.166,1.521,0.167,3.055,0.003,4.576L715.645,725.243z"/>
		<path fill="#464950" d="M715.646,730.243c-2.553,0-4.696-1.923-4.971-4.461c-1.56-14.38,8.832-27.302,23.212-28.862
			c1.869-0.203,3.755-0.204,5.625-0.003c14.369,1.556,24.756,14.466,23.2,28.835c-0.275,2.537-2.415,4.46-4.967,4.462
			L715.646,730.243L715.646,730.243z M736.685,706.764c-7.883,0.017-14.609,5.705-15.935,13.475l31.9-0.021
			c-1.225-7.125-7.022-12.576-14.209-13.36C737.858,706.795,737.272,706.764,736.685,706.764z"/>
		<path fill="#464950" d="M688.8,726.491c-0.053-0.456-0.08-0.915-0.08-1.374c0.015-6.414,5.227-11.602,11.641-11.586
			c6.414,0.015,11.602,5.227,11.586,11.641c-0.001,0.566-0.044,1.132-0.128,1.692L688.8,726.491z"/>
		<path fill="#464950" d="M592.935,725.757c-1.117-9.445,5.634-18.007,15.079-19.125c9.445-1.117,18.007,5.634,19.125,15.079
			c0.181,1.529,0.156,3.076-0.075,4.599L592.935,725.757z"/>
		<path fill="#464950" d="M704.9,230.042c-1.709-0.001-3.299-0.874-4.216-2.315c-5.595-8.809-16.877-12.068-26.308-7.6
			c-2.494,1.187-5.478,0.128-6.666-2.366c-1.187-2.494-0.128-5.478,2.366-6.665c10.973-5.202,23.981-3.449,33.186,4.473
			c5.441-9.581,15.627-15.483,26.645-15.438c2.761,0,5,2.239,5,5s-2.239,5-5,5c-9.641-0.041-18.015,6.625-20.137,16.029
			c-0.521,2.273-2.543,3.884-4.875,3.883L704.9,230.042z"/>
		<path fill="#464950" d="M753.926,256.97c-1.709,0-3.299-0.873-4.217-2.315c-3.889-6.124-11.731-8.391-18.287-5.286
			c-2.494,1.187-5.478,0.128-6.666-2.366c-1.187-2.494-0.128-5.478,2.366-6.665c8.249-3.909,17.989-2.89,25.251,2.641
			c4.49-6.911,12.185-11.067,20.427-11.033c2.761,0,5,2.239,5,5s-2.239,5-5,5c-6.702-0.03-12.525,4.603-14,11.141
			c-0.521,2.273-2.543,3.884-4.875,3.883H753.926z"/>
		<path fill="#464950" d="M154.3,297.79h-23.326c-2.761,0-5-2.239-5-5s2.239-5,5-5h18.4c1.408-14.866,12.97-26.75,27.792-28.566
			c2.745-0.298,5.212,1.686,5.511,4.431c0.293,2.698-1.62,5.138-4.311,5.496c-10.926,1.343-19.136,10.623-19.135,21.632
			c0,0.546,0.02,1.1,0.06,1.639c0.203,2.754-1.864,5.151-4.618,5.354c-0.123,0.009-0.246,0.014-0.369,0.014H154.3z"/>
		<path fill="#464950" d="M177.766,269.188c-0.071,0-0.141,0-0.212,0c-2.757-0.115-4.9-2.443-4.787-5.2
			c0.984-23.293,20.665-41.379,43.958-40.394c19.745,0.834,36.268,15.255,39.766,34.705c0.475,2.72-1.346,5.31-4.066,5.785
			c-2.705,0.472-5.284-1.325-5.778-4.026c-3.159-17.509-19.913-29.143-37.423-25.984c-14.831,2.675-25.825,15.275-26.466,30.331
			C182.642,267.078,180.442,269.186,177.766,269.188z"/>
		<path fill="#464950" d="M327.272,297.791h-33.165c-2.761,0-5-2.239-5-5c0-0.1,0.003-0.2,0.009-0.3
			c0.033-0.565,0.051-1.136,0.051-1.71c0-15.477-12.546-28.024-28.023-28.025c-7.993,0-15.605,3.412-20.923,9.38
			c-1.831,2.067-4.991,2.259-7.058,0.428c-2.067-1.831-2.259-4.991-0.428-7.058c0.008-0.009,0.016-0.018,0.024-0.026
			c13.974-15.677,38.01-17.057,53.687-3.083c7.318,6.523,11.833,15.62,12.605,25.392h28.222c2.761,0,5,2.239,5,5s-2.239,5-5,5
			L327.272,297.791z"/>
		<path fill="#464950" d="M921.087,195.275h-16.3c-2.761,0-5-2.239-5-5c0-0.123,0.005-0.245,0.014-0.368
			c0.025-0.341,0.037-0.686,0.038-1.034c0.001-6.933-5.169-12.778-12.05-13.624c-2.742-0.331-4.695-2.822-4.364-5.564
			c0.331-2.742,2.823-4.695,5.564-4.364c10.553,1.294,18.958,9.446,20.575,19.954h11.525c2.761,0,5,2.239,5,5s-2.239,5-5,5
			L921.087,195.275z"/>
		<path fill="#464950" d="M888.382,175.285c-2.679-0.002-4.881-2.115-4.992-4.792c-0.495-11.592-10.293-20.589-21.886-20.094
			c-9.818,0.419-18.034,7.588-19.779,17.259c-0.486,2.718-3.084,4.528-5.802,4.042c-2.718-0.486-4.528-3.084-4.042-5.802
			c3.033-16.855,19.156-28.06,36.011-25.027c14.284,2.57,24.875,14.705,25.489,29.206c0.113,2.758-2.03,5.085-4.788,5.2
			C888.522,175.284,888.452,175.285,888.382,175.285z"/>
		<path fill="#464950" d="M807.073,195.276H783.9c-2.761,0-5-2.239-5-5s2.239-5,5-5h18.366
			c1.987-15.381,16.066-26.239,31.447-24.253c6.703,0.866,12.868,4.12,17.365,9.165c1.845,2.055,1.674,5.216-0.381,7.061
			c-2.055,1.845-5.216,1.674-7.061-0.381c-0.007-0.008-0.014-0.016-0.021-0.024c-6.643-7.455-18.071-8.114-25.527-1.471
			c-3.851,3.431-6.053,8.343-6.052,13.5c0,0.372,0.012,0.742,0.033,1.109c0.162,2.757-1.941,5.123-4.697,5.285
			c-0.098,0.006-0.196,0.009-0.294,0.009L807.073,195.276z"/>
		<path fill="#464950" d="M774.7,401.021h-37.238c-2.761,0-5-2.239-5-5s2.239-5,5-5H774.7c2.761,0,5,2.239,5,5
			S777.461,401.021,774.7,401.021z"/>
		<path fill="#464950" d="M717.726,401.021h-8.475c-2.761,0-5-2.239-5-5s2.239-5,5-5h8.475c2.761,0,5,2.239,5,5
			S720.487,401.021,717.726,401.021z"/>
		<path fill="#464950" d="M837.22,427.816H772.8c-2.761,0-5-2.239-5-5s2.239-5,5-5h64.42c2.761,0,5,2.239,5,5
			S839.981,427.816,837.22,427.816z"/>
		<path fill="#464950" d="M756.081,427.816h-13.4c-2.761,0-5-2.239-5-5s2.239-5,5-5h13.4c2.761,0,5,2.239,5,5
			S758.842,427.816,756.081,427.816z"/>
		<path fill="#464950" d="M683.356,449.333h-56.1c-2.761,0-5-2.239-5-5s2.239-5,5-5h56.1c2.761,0,5,2.239,5,5
			S686.117,449.333,683.356,449.333z"/>
		<path fill="#464950" d="M705.333,427.816h-44.761c-2.761,0-5-2.239-5-5s2.239-5,5-5h44.761c2.761,0,5,2.239,5,5
			S708.094,427.816,705.333,427.816z"/>
		<path fill="#464950" d="M495.482,396.64h-44.761c-2.761,0-5-2.239-5-5s2.239-5,5-5h44.761c2.761,0,5,2.239,5,5
			S498.243,396.64,495.482,396.64z"/>
		<path fill="#464950" d="M517.862,427.816h-22.38c-2.761,0-5-2.239-5-5s2.239-5,5-5h22.38c2.761,0,5,2.239,5,5
			S520.623,427.816,517.862,427.816z"/>
		<path fill="#464950" d="M114.612,379.221H62.077c-2.761,0-5-2.239-5-5s2.239-5,5-5h52.535c2.761,0,5,2.239,5,5
			S117.373,379.221,114.612,379.221z"/>
		<path fill="#464950" d="M774.4,401.021c-2.761,0-5-2.239-5-5s2.239-5,5-5c5.247,0,9.5-4.253,9.5-9.5s-4.253-9.5-9.5-9.5
			s-9.5,4.253-9.5,9.5c0,2.761-2.239,5-5,5s-5-2.239-5-5c0-10.77,8.73-19.5,19.5-19.5s19.5,8.73,19.5,19.5
			S785.17,401.021,774.4,401.021L774.4,401.021z"/>
		<path fill="#464950" d="M683.356,473.621c-9.464-0.01-17.133-7.679-17.144-17.143c0-2.761,2.239-5,5-5s5,2.239,5,5
			c0.001,3.946,3.199,7.144,7.145,7.143c3.946-0.001,7.144-3.199,7.143-7.145c-0.001-3.945-3.199-7.143-7.144-7.143
			c-2.761,0-5-2.239-5-5s2.239-5,5-5c9.468-0.005,17.148,7.667,17.153,17.135c0.005,9.468-7.667,17.148-17.135,17.153
			C683.368,473.621,683.362,473.621,683.356,473.621z"/>
		<path fill="#464950" d="M158.8,401.021h-25c-2.761,0-5-2.239-5-5s2.239-5,5-5h25c2.761,0,5,2.239,5,5
			S161.561,401.021,158.8,401.021z"/>
		<path fill="#464950" d="M114.612,401.021H92.461c-2.761,0-5-2.239-5-5s2.239-5,5-5h22.151c2.761,0,5,2.239,5,5
			S117.373,401.021,114.612,401.021z"/>
		<path fill="#464950" d="M158.5,401.021c-2.761,0-5-2.239-5-5s2.239-5,5-5c5.247,0,9.5-4.253,9.5-9.5s-4.253-9.5-9.5-9.5
			s-9.5,4.253-9.5,9.5c0,2.761-2.239,5-5,5s-5-2.239-5-5c0-10.77,8.73-19.5,19.5-19.5s19.5,8.73,19.5,19.5
			S169.27,401.021,158.5,401.021L158.5,401.021z"/>
	</g>
</g>
</svg>