<?xml version="1.0"?>
<svg xmlns="http://www.w3.org/2000/svg" viewBox="0 0 512 512" width="512" height="512"><g id="Fill_out_line" data-name="Fill out line"><rect x="168" y="248" width="224" height="240" style="fill:#bc8d5d"/><rect x="392" y="248" width="96" height="240" style="fill:#a1764a"/><polygon points="392 488 440 440 488 488 392 488" style="fill:#8c6231"/><path d="M296,64H262.627a24,24,0,1,1,0-48h2.7461a23.84338,23.84338,0,0,1,16.9707,7.0293l19.31348,19.31347A8.00235,8.00235,0,0,1,304,48v8A8.00039,8.00039,0,0,1,296,64Z" style="fill:#2dac4d"/><path d="M353.37305,96a49.6154,49.6154,0,0,1-35.31446-14.62695L306.34277,69.65723a8.00122,8.00122,0,0,1,0-11.31446l8-8A8.00235,8.00235,0,0,1,320,48h33.373a24,24,0,1,1,0,48Z" style="fill:#2dac4d"/><path d="M256,248l-9.61728-52.89506a50.43066,50.43066,0,0,1,24.5966-52.80741l.00006,0a50.43067,50.43067,0,0,1,50.04124,0l.00006,0a50.43066,50.43066,0,0,1,24.5966,52.80741L336,248Z" style="fill:#e05e1d"/><path d="M216,80H174.627a24,24,0,1,1,0-48h10.7461a23.84338,23.84338,0,0,1,16.9707,7.0293l19.31348,19.31347A8.00235,8.00235,0,0,1,224,64v8A8.00039,8.00039,0,0,1,216,80Z" style="fill:#2dac4d"/><path d="M158.627,136a24,24,0,1,1,0-48H192a8.00235,8.00235,0,0,1,5.65723,2.34277l8,8a8.00122,8.00122,0,0,1,0,11.31446l-11.71582,11.71582A49.6154,49.6154,0,0,1,158.627,136Z" style="fill:#2dac4d"/><path d="M266.42993,186.07007a50.381,50.381,0,0,1-.80981,9.03L256,248H176l-4.35986-24L168.73,208l-2.3501-12.8999c-.18994-1.03-.33984-2.07007-.46-3.1001a49.78819,49.78819,0,0,1,.67017-16,50.4293,50.4293,0,0,1,99.83984,10.07007Z" style="fill:#ff6f35"/><path d="M424,232v0a16,16,0,0,0-16-16h0a16,16,0,0,0,16-16v0a16,16,0,0,0-16-16h0a16,16,0,0,0,16-16v0a16,16,0,0,0-16-16h0l4.6863-4.6863a16,16,0,0,0,0-22.6274l-1.3726-1.3726a16,16,0,0,0-22.6274,0L384,128v0a16,16,0,0,0-16-16h0a16,16,0,0,0-16,16v0l-4.6863-4.6863a16,16,0,0,0-22.6274,0l-1.3726,1.3726a16,16,0,0,0,0,22.6274L328,152h0a16,16,0,0,0-16,16v0a16,16,0,0,0,16,16h0a16,16,0,0,0-16,16v0a16,16,0,0,0,16,16h0a16,16,0,0,0-16,16v0a16,16,0,0,0,16,16h80A16,16,0,0,0,424,232Z" style="fill:#7ab555"/><path d="M488,232v0a16,16,0,0,0-16-16h0a16,16,0,0,0,16-16v0a16,16,0,0,0-16-16h0a16,16,0,0,0,16-16v0a16,16,0,0,0-16-16h0l4.68631-4.6863a16,16,0,0,0,0-22.6274l-1.37261-1.3726a16,16,0,0,0-22.62739,0L448,128v0a16,16,0,0,0-16-16h0a16,16,0,0,0-16,16v0l-4.6863-4.6863a16,16,0,0,0-22.62739,0l-1.37261,1.3726a16,16,0,0,0,0,22.6274L392,152h0a16,16,0,0,0-16,16v0a16,16,0,0,0,16,16h0a16,16,0,0,0-16,16v0a16,16,0,0,0,16,16h0a16,16,0,0,0-16,16v0a16,16,0,0,0,16,16h80A16,16,0,0,0,488,232Z" style="fill:#42c25e"/><rect x="24" y="376" width="64" height="112" rx="31.99997" ry="31.99997" style="fill:#e0b82f"/><rect x="56" y="376" width="64" height="112" rx="31.99997" ry="31.99997" style="fill:#eacf4d"/><rect x="168" y="376" width="64" height="112" rx="31.99997" ry="31.99997" transform="translate(400 864) rotate(180)" style="fill:#e0b82f"/><rect x="136" y="376" width="64" height="112" rx="31.99997" ry="31.99997" transform="translate(336 864) rotate(180)" style="fill:#eacf4d"/><rect x="96" y="376" width="64" height="112" rx="31.99997" ry="31.99997" style="fill:#f2e368"/><path d="M200,368a40.053,40.053,0,0,0-15.99805,3.35107,39.907,39.907,0,0,0-36.01172,2.02491,39.756,39.756,0,0,0-8.8186-3.77637,65.472,65.472,0,0,0-10.238-59.02246l-2.53418-3.37793-12.79882,9.60156,2.5332,3.377a49.578,49.578,0,0,1,6.51367,48.19092,39.69841,39.69841,0,0,0-14.63769,5.00733,39.90883,39.90883,0,0,0-36.01148-2.02539A39.97738,39.97738,0,0,0,16,408v48a39.97628,39.97628,0,0,0,55.99805,36.64893,39.907,39.907,0,0,0,36.01172-2.02491,39.85417,39.85417,0,0,0,39.98046,0,39.90859,39.90859,0,0,0,36.01246,2.02491A39.97566,39.97566,0,0,0,240,456V408A40.04584,40.04584,0,0,0,200,368ZM32,456V408a24.0275,24.0275,0,0,1,24-24l.02148.001A39.789,39.789,0,0,0,48,408v48a39.789,39.789,0,0,0,8.02148,23.999L56,480A24.0275,24.0275,0,0,1,32,456Zm32,0V408a23.989,23.989,0,0,1,31.22144-22.88379A39.76712,39.76712,0,0,0,88,408v48a39.76712,39.76712,0,0,0,7.22144,22.88379A23.989,23.989,0,0,1,64,456Zm40,0V408a24,24,0,0,1,48,0v48a24,24,0,0,1-48,0Zm56.77856,22.88379A39.76712,39.76712,0,0,0,168,456V408a39.76712,39.76712,0,0,0-7.22144-22.88379A23.989,23.989,0,0,1,192,408v48a23.989,23.989,0,0,1-31.22144,22.88379ZM224,456a24.0275,24.0275,0,0,1-24,24l-.02148-.001A39.789,39.789,0,0,0,208,456V408a39.789,39.789,0,0,0-8.02148-23.999L200,384a24.0275,24.0275,0,0,1,24,24Z"/><path d="M489.874,184a23.9714,23.9714,0,0,0-3.97558-35.55664,24.04383,24.04383,0,0,0-3.55469-29.41406l-1.373-1.37305a24.04278,24.04278,0,0,0-29.41406-3.55469,23.9812,23.9812,0,0,0-39.10937-.00488,24.05051,24.05051,0,0,0-24.89893.00635,23.97215,23.97215,0,0,0-39.10107-.00635,24.02512,24.02512,0,0,0-29.418,3.55957l-1.373,1.37305a23.84193,23.84193,0,0,0-6.17725,10.6936A58.12532,58.12532,0,0,0,304,128.17041V83.31421l8-8.00073,6.05859,6.05957A49.6154,49.6154,0,0,0,353.37305,96a24,24,0,1,0,0-48H320a8.00235,8.00235,0,0,0-5.65723,2.34277L304,60.68555V48a8.00235,8.00235,0,0,0-2.34277-5.65723L282.34375,23.0293A23.84338,23.84338,0,0,0,265.37305,16H262.627a24,24,0,1,0,0,48H288v64.1687a58.64639,58.64639,0,0,0-31.999,15.32959A58.05756,58.05756,0,0,0,224,128.24V64a8.00235,8.00235,0,0,0-2.34277-5.65723L202.34375,39.0293A23.84338,23.84338,0,0,0,185.37305,32H174.627a24,24,0,1,0,0,48H208v20.68555L197.65723,90.34277A8.00235,8.00235,0,0,0,192,88H158.627a24,24,0,1,0,0,48,49.6154,49.6154,0,0,0,35.31446-14.62695L200,115.31348l8,8.00073V128.24a58.32285,58.32285,0,0,0-49.48828,68.29517l7.93066,43.61914A8.00091,8.00091,0,0,0,160,248V352h16V256H384V480H248v16H488a8.00039,8.00039,0,0,0,8-8V248a7.97444,7.97444,0,0,0-2.3457-5.65894A23.96118,23.96118,0,0,0,489.874,216a23.95761,23.95761,0,0,0,0-32ZM353.37305,64a8,8,0,0,1,0,16,33.71558,33.71558,0,0,1-24-9.94141L323.31348,64ZM262.627,48a8,8,0,0,1,0-16h2.7461a7.94368,7.94368,0,0,1,5.65625,2.34375L284.68652,48Zm-88,16a8,8,0,0,1,0-16h10.7461a7.94368,7.94368,0,0,1,5.65625,2.34375L204.68652,64Zm8,46.05859a33.71558,33.71558,0,0,1-24,9.94141,8,8,0,0,1,0-16h30.05957Zm211.7168,18.91211a7.99708,7.99708,0,0,1,11.3125,0l4.68652,4.68653A8.00066,8.00066,0,0,0,424,128a8,8,0,0,1,16,0,8.00066,8.00066,0,0,0,13.65723,5.65723l4.68652-4.68653a7.99708,7.99708,0,0,1,11.3125,0l1.373,1.37305a7.99708,7.99708,0,0,1,0,11.3125l-4.68653,4.68652A8.00066,8.00066,0,0,0,472,160a8,8,0,0,1,0,16,8,8,0,0,0,0,16,8,8,0,0,1,0,16,8,8,0,0,0,0,16,8,8,0,0,1,0,16H440V227.31445l21.65723-21.65722-11.31446-11.31446L440,204.686V187.31445l21.65723-21.65722-11.31446-11.31446L440,164.686V144H424v20.686l-10.34277-10.34327-11.31446,11.31446L424,187.31445V204.686l-10.34277-10.34327-11.31446,11.31446L424,227.31445V240H392a8,8,0,0,1,0-16,8,8,0,0,0,0-16,8,8,0,0,1,0-16,8,8,0,0,0,0-16,8,8,0,0,1,0-16,8.00066,8.00066,0,0,0,5.65723-13.65723l-4.68653-4.68652a7.99708,7.99708,0,0,1,0-11.3125ZM480,256V468.68555l-32-32V272H432V436.68555l-32,32V256ZM440,451.31348,468.68579,480H411.31421ZM274.94824,149.24414a42.19337,42.19337,0,0,1,38.61328-1.7832c.17823.32837.34522.66113.54.98242A23.9714,23.9714,0,0,0,310.126,184a23.95761,23.95761,0,0,0,0,32,23.95221,23.95221,0,0,0-4.74976,24H265.58569l2.90918-16H288V208H271.40381l2.08447-11.46387q.41235-2.26794.64185-4.53613H288V176H273.54a58.689,58.689,0,0,0-7.46973-19.98438A42.22908,42.22908,0,0,1,274.94824,149.24414Zm-80,0a42.43045,42.43045,0,0,1,62.79785,44.42969L249.32324,240H182.67676l-2.90918-16H208V208H176.85889l-2.605-14.32715q-.152-.83643-.26953-1.67285H224V176H174.79932A42.47331,42.47331,0,0,1,194.94824,149.24414ZM320,232a8.00917,8.00917,0,0,1,8-8,8,8,0,0,0,0-16,8,8,0,0,1,0-16,8,8,0,0,0,0-16,8,8,0,0,1,0-16,8.00066,8.00066,0,0,0,5.65723-13.65723l-4.68653-4.68652a8.00771,8.00771,0,0,1,0-11.3125l1.373-1.37305a7.99708,7.99708,0,0,1,11.3125,0l4.68652,4.68653A8.00066,8.00066,0,0,0,360,128a8,8,0,0,1,16,0c0,.01514.00342.02954.00342.04443a24.08676,24.08676,0,0,0,2.09814,20.39893,23.928,23.928,0,0,0-9.70825,23.84961L368,172.68652l-18.34277-18.34375-11.31446,11.31446,24,24a7.96822,7.96822,0,0,0,7.09742,2.209,23.7716,23.7716,0,0,0,.915,18.46484L368,212.68652l-18.34277-18.34375-11.31446,11.31446,24,24A7.97772,7.97772,0,0,0,368,232a23.88238,23.88238,0,0,0,1.37622,8H328A8.00917,8.00917,0,0,1,320,232Z"/></g></svg>
