<svg id="Layer_1" height="512" viewBox="0 0 128 128" width="512" xmlns="http://www.w3.org/2000/svg" data-name="Layer 1"><path d="m92.44 34.84a12.066 12.066 0 0 1 -1.56 5.93l-25.58 45.39a5.251 5.251 0 0 1 -9.66-3.88l12.94-50.42.01-.05a11.792 11.792 0 0 1 1.32-3.18 12.116 12.116 0 0 1 22.53 6.21z" fill="#ff8100"/><path d="m84.842 23.584-26.074 64.87a5.252 5.252 0 0 0 6.532-2.294l25.578-45.387a12.115 12.115 0 0 0 -6.036-17.189z" fill="#ff5d00"/><path d="m51.659 96.917a5.252 5.252 0 0 1 -5.207-4.566l-6.804-51.651a12.115 12.115 0 0 1 12.011-13.7 12.115 12.115 0 0 1 12.012 13.7l-6.8 51.651a5.252 5.252 0 0 1 -5.212 4.566z" fill="#ff5d00"/><path d="m51.66 27v69.92a5.262 5.262 0 0 1 -5.21-4.57l-6.57-49.9-.23-1.75a12.906 12.906 0 0 1 -.11-1.74 12.124 12.124 0 0 1 12.12-11.96z" fill="#ff8100"/><path d="m58.689 21.9a5.043 5.043 0 0 0 -.757.076 6.216 6.216 0 0 0 .064-.63 6.336 6.336 0 1 0 -12.671 0 6.216 6.216 0 0 0 .064.63 5.079 5.079 0 1 0 -.757 10.1h14.057a5.088 5.088 0 0 0 0-10.176z" fill="#59c26a"/><path d="m93.267 21.473a5.043 5.043 0 0 0 -.731-.212 6.216 6.216 0 0 0 .294-.561 6.336 6.336 0 1 0 -11.757-4.726 6.216 6.216 0 0 0 -.176.608 5.079 5.079 0 1 0 -4.469 9.088l13.045 5.243a5.088 5.088 0 1 0 3.8-9.442z" fill="#96dd3d"/><path d="m49 40.7a1.746 1.746 0 0 1 -1.75 1.75h-7.37l-.23-1.75a12.906 12.906 0 0 1 -.11-1.74.377.377 0 0 1 .11-.01h7.6a1.746 1.746 0 0 1 1.75 1.75z" fill="#ff5d00"/><path d="m78.86 34.31a1.76 1.76 0 0 1 -1.61 1.07 1.8 1.8 0 0 1 -.68-.14l-7.99-3.38.01-.05a11.792 11.792 0 0 1 1.32-3.18l8.02 3.38a1.752 1.752 0 0 1 .93 2.3z" fill="#ff5d00"/><path d="m79.01 40.119-5.14-2a1.75 1.75 0 1 0 -1.27 3.262l5.14 2a1.75 1.75 0 0 0 1.27-3.262z" fill="#ff5d00"/><path d="m-3.32 70.5h63.211v17.07h-63.211z" fill="#b95529" transform="matrix(0 1 -1 0 107.32 50.75)"/><path d="m67.36 70.5h63.211v17.07h-63.211z" fill="#aa481f" transform="matrix(0 1 -1 0 178 -19.93)"/><path d="m19.75 47.43h87.75v17.07h-87.75z" fill="#e76a36"/><path d="m19.75 70.5h87.75v17.07h-87.75z" fill="#e76a36"/><path d="m19.75 93.57h87.75v17.07h-87.75z" fill="#e76a36"/><path d="m26.875 110.641h74.25v5.359h-74.25z" fill="#aa481f"/><path d="m64 70.5h43.5v17.07h-43.5z" fill="#b95529"/><path d="m64 93.57h43.5v17.07h-43.5z" fill="#b95529"/><path d="m64 47.43h43.5v17.07h-43.5z" fill="#b95529"/><circle cx="26.562" cy="53.185" fill="#e5ffff" r="2.312"/><circle cx="26.562" cy="59.123" fill="#e5ffff" r="2.312"/><circle cx="26.562" cy="76.066" fill="#e5ffff" r="2.312"/><circle cx="26.562" cy="82.004" fill="#e5ffff" r="2.312"/><circle cx="26.562" cy="98.947" fill="#e5ffff" r="2.312"/><circle cx="26.562" cy="104.886" fill="#e5ffff" r="2.312"/><circle cx="101.125" cy="53.185" fill="#cae7f7" r="2.312"/><circle cx="101.125" cy="59.123" fill="#cae7f7" r="2.312"/><circle cx="101.125" cy="76.066" fill="#cae7f7" r="2.312"/><circle cx="101.125" cy="82.004" fill="#cae7f7" r="2.312"/><circle cx="101.125" cy="98.947" fill="#cae7f7" r="2.312"/><circle cx="101.125" cy="104.886" fill="#cae7f7" r="2.312"/><path d="m45.324 21.348a6.205 6.205 0 0 0 .064.63 5.079 5.079 0 1 0 -.757 10.1h7.029v-17.066a6.336 6.336 0 0 0 -6.336 6.336z" fill="#96dd3d"/><path d="m89.472 30.914a5.09 5.09 0 1 0 3.064-9.653 6.227 6.227 0 0 0 .294-.561 6.336 6.336 0 0 0 -3.516-8.241l-6.365 15.834z" fill="#59c26a"/><g fill="#790000"><path d="m73.87 38.119a1.75 1.75 0 1 0 -1.27 3.262l5.14 2a1.75 1.75 0 0 0 1.27-3.262z"/><path d="m116 114.25h-13.125v-1.859h4.625a1.75 1.75 0 0 0 1.75-1.75v-17.071-23.07-23.07a1.75 1.75 0 0 0 -1.75-1.75h-40.663l3.368-13.126 6.365 2.684a1.75 1.75 0 1 0 1.359-3.225l-6.394-2.7a10.22 10.22 0 0 1 2.711-2.883 6.864 6.864 0 0 0 1.527.861l13.045 5.243a6.816 6.816 0 0 0 1.7.434 10.242 10.242 0 0 1 -1.163 6.942 1.75 1.75 0 1 0 3.045 1.723 13.7 13.7 0 0 0 1.578-9.14 6.817 6.817 0 0 0 .82-12.214 8.087 8.087 0 0 0 -14.86-5.973 6.838 6.838 0 0 0 -7.905 9.328c.01.023.022.043.032.066a13.641 13.641 0 0 0 -4.5 5.724c-.016.033-.038.062-.052.1s-.019.065-.03.1a14.13 14.13 0 0 0 -.593 1.761l-1.5 5.859a13.694 13.694 0 0 0 -1.916-5.372 6.832 6.832 0 0 0 -3.807-11.644 8.087 8.087 0 0 0 -16.016 0 6.832 6.832 0 0 0 -3.8 11.649 13.716 13.716 0 0 0 -1.937 9.059l.626 4.75h-18.79a1.75 1.75 0 0 0 -1.75 1.744v17.07 23.07 6 17.07a1.75 1.75 0 0 0 1.75 1.75h5.375v1.859h-13.125a1.75 1.75 0 0 0 0 3.5h67.875a1.75 1.75 0 0 0 0-3.5h-51.25v-1.859h8.2a1.75 1.75 0 0 0 0-3.5h-15.325v-13.57h84.25v13.57h-62.3a1.75 1.75 0 0 0 0 3.5h55.925v1.859h-5.125a1.75 1.75 0 0 0 0 3.5h21.75a1.75 1.75 0 0 0 0-3.5zm-40.772-94.544a3.223 3.223 0 0 1 4.782-1.614 1.75 1.75 0 0 0 2.568-1.024l.068-.259a1.552 1.552 0 0 1 .05-.182 4.586 4.586 0 1 1 8.509 3.422c-.025.058-.06.11-.09.165l-.129.232a1.754 1.754 0 0 0 -.031 1.542 1.774 1.774 0 0 0 1.2.981 3.161 3.161 0 0 1 .458.126 3.338 3.338 0 0 1 -2.491 6.194l-13.043-5.242a3.337 3.337 0 0 1 -1.852-4.342zm30.522 46.544v2.5h-13.57v-2.5zm-61.12-42.6a3.338 3.338 0 0 1 .5.057 1.751 1.751 0 0 0 2-1.9c-.01-.094-.021-.187-.034-.28a1.406 1.406 0 0 1 -.021-.18 4.586 4.586 0 0 1 9.172 0 1.4 1.4 0 0 1 -.021.182c-.013.093-.024.186-.034.28a1.766 1.766 0 0 0 2.028 1.9 3.1 3.1 0 0 1 .471-.053 3.338 3.338 0 1 1 0 6.676h-14.061a3.338 3.338 0 0 1 0-6.676zm-2.986 18.8h5.606a1.75 1.75 0 0 0 0-3.5h-5.945a10.2 10.2 0 0 1 1.587-5.35 6.806 6.806 0 0 0 1.738.232h14.058a6.8 6.8 0 0 0 1.741-.233 10.275 10.275 0 0 1 1.506 6.878l-.686 5.208h-19.18zm-20.144 6.73h84.25v13.57h-45.75a1.75 1.75 0 0 0 0 3.5h28.68v2.5h-50.11v-2.5h7.43a1.75 1.75 0 0 0 0-3.5h-24.5zm67.18 40.14v2.5h-50.11v-2.5zm-53.61 2.5h-13.57v-2.5h13.57zm-13.57-25.57h13.57v2.5h-13.57zm70.68 25.57v-2.5h9.508a1.75 1.75 0 0 0 0-3.5h-80.188v-13.57h84.25v19.57z"/><path d="m87.5 114.25h-.75a1.75 1.75 0 0 0 0 3.5h.75a1.75 1.75 0 0 0 0-3.5z"/><path d="m53 66.25h.792a1.75 1.75 0 0 0 0-3.5h-.792a1.75 1.75 0 0 0 0 3.5z"/><path d="m26.562 50.873a2.312 2.312 0 1 0 2.312 2.312 2.314 2.314 0 0 0 -2.312-2.312z"/><path d="m26.562 56.812a2.312 2.312 0 1 0 2.312 2.312 2.314 2.314 0 0 0 -2.312-2.312z"/><path d="m26.562 73.754a2.312 2.312 0 1 0 2.312 2.312 2.314 2.314 0 0 0 -2.312-2.312z"/><path d="m26.562 79.693a2.312 2.312 0 1 0 2.311 2.307 2.314 2.314 0 0 0 -2.311-2.307z"/><path d="m26.562 96.636a2.312 2.312 0 1 0 2.312 2.312 2.314 2.314 0 0 0 -2.312-2.312z"/><path d="m26.562 102.574a2.312 2.312 0 1 0 2.312 2.312 2.314 2.314 0 0 0 -2.312-2.312z"/><path d="m101.125 55.5a2.312 2.312 0 1 0 -2.312-2.312 2.314 2.314 0 0 0 2.312 2.312z"/><path d="m101.125 61.435a2.312 2.312 0 1 0 -2.312-2.312 2.314 2.314 0 0 0 2.312 2.312z"/><path d="m101.125 73.754a2.312 2.312 0 1 0 2.312 2.312 2.314 2.314 0 0 0 -2.312-2.312z"/><path d="m101.125 79.693a2.312 2.312 0 1 0 2.312 2.307 2.314 2.314 0 0 0 -2.312-2.307z"/><path d="m101.125 101.259a2.312 2.312 0 1 0 -2.312-2.312 2.314 2.314 0 0 0 2.312 2.312z"/><path d="m101.125 107.2a2.312 2.312 0 1 0 -2.312-2.312 2.314 2.314 0 0 0 2.312 2.312z"/></g></svg>