<svg id="Filled" height="512" viewBox="0 0 512 512" width="512" xmlns="http://www.w3.org/2000/svg"><path d="m440 296v160a32 32 0 0 1 -32 32h-192a32 32 0 0 1 -32-32v-160a32 32 0 0 1 32-32h8v-32h176v32h8a32 32 0 0 1 32 32z" fill="#f7b030"/><circle cx="304" cy="336" fill="#95573a" r="24"/><circle cx="336" cy="336" fill="#b37a60" r="24"/><path d="m304 168h-32v-8a16 16 0 0 0 -16-16 16 16 0 0 1 -16-16v-48h64z" fill="#e09f2c"/><rect fill="#f7b030" height="32" rx="16" width="224" x="200" y="168"/><rect fill="#e09f2c" height="32" rx="16" width="224" x="200" y="200"/><path d="m88 48h208a0 0 0 0 1 0 0v32a0 0 0 0 1 0 0h-208a16 16 0 0 1 -16-16 16 16 0 0 1 16-16z" fill="#ad6643"/><rect fill="#f7b030" height="80" rx="16" width="32" x="240" y="24"/><rect fill="#eba72e" height="80" rx="16" width="32" x="272" y="24"/><rect fill="#f7b030" height="144" rx="16" width="32" x="304" y="24"/><path d="m216 488h192a32 32 0 0 0 32-32h-256a32 32 0 0 0 32 32z" fill="#e09f2c"/><path d="m368 392a31.973 31.973 0 0 1 -32 32h-48a32 32 0 1 1 0-64h48a31.973 31.973 0 0 1 32 32z" fill="#ffe76c"/><path d="m304 360h32v64h-32z" fill="#7a4830"/><path d="m288 432h48a40.068 40.068 0 0 0 39.2-32h8.8a8 8 0 0 0 0-16h-8.8a40.1 40.1 0 0 0 -16.827-25.146 31.977 31.977 0 0 0 -38.362-50.554 31.982 31.982 0 0 0 -42.79 45.189 40 40 0 0 0 10.779 78.511zm24-64h16v48h-16zm32 46.624v-45.248a24 24 0 0 1 0 45.248zm8-78.624a16 16 0 1 1 -16-16 16.019 16.019 0 0 1 16 16zm-48-16a16.023 16.023 0 0 1 4.006.52 31.912 31.912 0 0 0 0 30.96 16 16 0 1 1 -4.006-31.48zm-39.449 66.9a8.014 8.014 0 1 0 5.325-10.607 23.946 23.946 0 0 1 18.124-8.293h8v48h-8a23.987 23.987 0 0 1 -23.449-29.1z"/><path d="m448 296a40.045 40.045 0 0 0 -40-40v-16a23.984 23.984 0 0 0 17.869-40 23.984 23.984 0 0 0 -17.869-40h-65.376a23.889 23.889 0 0 0 1.376-8v-112a23.984 23.984 0 0 0 -40-17.869 23.943 23.943 0 0 0 -32 0 23.984 23.984 0 0 0 -40 17.869h-144a24 24 0 0 0 0 48h144v40a24.027 24.027 0 0 0 24 24 8.009 8.009 0 0 1 8 8h-48a23.984 23.984 0 0 0 -17.869 40 23.984 23.984 0 0 0 17.869 40v16a40.045 40.045 0 0 0 -40 40v160a40.045 40.045 0 0 0 40 40h192a40.045 40.045 0 0 0 40-40zm-128-264a8.009 8.009 0 0 1 8 8v112a8 8 0 0 1 -16 0v-112a8.009 8.009 0 0 1 8-8zm-32 0a8.009 8.009 0 0 1 8 8v48a8 8 0 0 1 -16 0v-48a8.009 8.009 0 0 1 8-8zm-40 8a8 8 0 0 1 16 0v48a8 8 0 0 1 -16 0zm-160 32a8 8 0 0 1 0-16h144v16zm168 64a8.009 8.009 0 0 1 -8-8v-17.376a23.943 23.943 0 0 0 24-4.755 23.943 23.943 0 0 0 24 4.755v41.376a23.889 23.889 0 0 0 1.376 8h-17.376a24.027 24.027 0 0 0 -24-24zm-40 40h192a8 8 0 0 1 0 16h-192a8 8 0 0 1 0-16zm-8 40a8.009 8.009 0 0 1 8-8h192a8 8 0 0 1 0 16h-192a8.009 8.009 0 0 1 -8-8zm8 56h120a8 8 0 0 0 0-16h-104v-16h160v16h-24a8 8 0 0 0 0 16h40a24.028 24.028 0 0 1 24 24v152h-240v-152a24.028 24.028 0 0 1 24-24zm192 208h-192a24.039 24.039 0 0 1 -22.624-16h237.248a24.039 24.039 0 0 1 -22.624 16z"/></svg>