<svg height="512" viewBox="0 0 64 64" width="512" xmlns="http://www.w3.org/2000/svg"><g id="Twotone"><g id="Stroke_copy_3" data-name="Stroke copy 3"><g><path d="m50.5 11a6.491 6.491 0 0 0 -6.346 7.9l2.846-1.9v5.971a6.5 6.5 0 1 0 3.5-11.971z" fill="#cff09e"/><path d="m45 5a2.975 2.975 0 0 0 -1.368.344 3.986 3.986 0 0 0 -7.264 0 2.978 2.978 0 0 0 -4.024 4.024 3.972 3.972 0 0 0 -.965 6.632 3.868 3.868 0 0 0 -1.179 4.2l4.8-3.2 6 4 1.969-1.313a3.069 3.069 0 0 0 -.159-.706c.064 0 .125.019.19.019a2.988 2.988 0 0 0 2.221-5 2.95 2.95 0 0 0 .559-3.115 2.993 2.993 0 0 0 -.78-5.885z" fill="#79bd9a"/><path d="m23 17 6 4 1.452-.968-7.523-13.032a8 8 0 0 0 -10.929-2.927 4 4 0 0 0 -1.464 5.464l6.575 11.389z" fill="#a8dba8"/><path d="m23 26v-9l-6 4-6-4v13h3v5.172a6.826 6.826 0 0 0 2 4.828 6.826 6.826 0 0 1 2 4.828v16.172h29v-11a24.006 24.006 0 0 1 -24-24z" fill="#cff09e"/><path d="m47 17 6 4 6-4v44h-12z" fill="#a8dba8"/><path d="m59 17v44h-6v-40z" fill="#79bd9a"/><path d="m53 55-6 6h6 6z" fill="#cff09e"/><g><path d="m19 48.1v12.9h-14v-16.17a6.835 6.835 0 0 1 2-4.83 6.835 6.835 0 0 0 2-4.83v-5.17h6v2.01a3.163 3.163 0 0 0 -3 3.16 6.835 6.835 0 0 1 -2 4.83 6.835 6.835 0 0 0 -2 4.83 11.161 11.161 0 0 0 7.33 10.49 10.548 10.548 0 0 1 -.33-2.32 5 5 0 0 1 4-4.9z" fill="#cff09e"/><g fill="#79bd9a"><path d="m8 26h8v4h-8z"/><path d="m5 47h14v7h-14z"/></g></g><g><path d="m27 47a4.956 4.956 0 0 0 -3 1.023 4.977 4.977 0 0 0 -8 3.977c0 2.761 2.239 9 5 9a4.956 4.956 0 0 0 3-1.023 4.956 4.956 0 0 0 3 1.023c2.761 0 5-6.239 5-9a5 5 0 0 0 -5-5z" fill="#a8dba8"/><path d="m27 44h-3a4 4 0 0 1 4-4h3a4 4 0 0 1 -4 4z" fill="#79bd9a"/></g></g></g><g id="Stroke_Close_copy" data-name="Stroke Close copy"><g fill="#3b8686"><path d="m59.472 16.118a1 1 0 0 0 -1.027.05l-.518.345a7.477 7.477 0 0 0 -2.1-4.282 5.13 5.13 0 0 1 .734-.162l.571-.078a1 1 0 1 0 -.27-1.982l-.572.078a7.17 7.17 0 0 0 -2.354.755 7.462 7.462 0 0 0 -5.724-.485 3.96 3.96 0 0 0 .788-2.357 4 4 0 0 0 -4-4 3.814 3.814 0 0 0 -.927.114 4.981 4.981 0 0 0 -8.146 0 3.82 3.82 0 0 0 -.927-.114 4 4 0 0 0 -4 4 3.814 3.814 0 0 0 .114.927 4.96 4.96 0 0 0 -1.096 7.073 5.083 5.083 0 0 0 -.389.607l-4.829-8.373-1-1.734a9 9 0 0 0 -12.3-3.293 5.006 5.006 0 0 0 -1.83 6.83l4.576 7.925-2.691-1.794a1 1 0 0 0 -1.555.832v8h-2a1 1 0 0 0 -1 1v4a1 1 0 0 0 1 1v4.171a5.789 5.789 0 0 1 -1.707 4.122 7.774 7.774 0 0 0 -2.293 5.536v16.171a1 1 0 0 0 1 1h14a.991.991 0 0 0 .711-.3 3.008 3.008 0 0 0 1.289.3 5.89 5.89 0 0 0 3-.821 5.89 5.89 0 0 0 3 .821h32a1 1 0 0 0 1-1v-44a1 1 0 0 0 -.528-.882zm-6.472 40.296 3.586 3.586h-7.172zm1-1.828v-5.586a1 1 0 0 0 -2 0v5.586l-4 4v-39.717l4 2.666v12.465a1 1 0 0 0 2 0v-12.465l4-2.666v39.717zm-1.908-42.349a7.216 7.216 0 0 0 -.949 1.248 1 1 0 1 0 1.714 1.03 5.156 5.156 0 0 1 1.1-1.289 5.489 5.489 0 0 1 2.043 4.274c0 .107-.017.209-.024.314l-2.976 1.986-5.445-3.63a.994.994 0 0 0 -.555-.165 3.949 3.949 0 0 0 -.546-2 4.077 4.077 0 0 0 .225-.448 5.476 5.476 0 0 1 5.413-1.315zm-19.332-1.96a1 1 0 0 0 .473-1.368 1.966 1.966 0 0 1 -.233-.909 2 2 0 0 1 2.909-1.767 1 1 0 0 0 1.368-.473 2.986 2.986 0 0 1 5.446 0 1 1 0 0 0 .583.53 1.012 1.012 0 0 0 .785-.057 1.989 1.989 0 1 1 1.428 3.686 1 1 0 0 0 -.667 1.337 2 2 0 0 1 .148.744 1.974 1.974 0 0 1 -.522 1.331 1 1 0 0 0 0 1.338 1.987 1.987 0 0 1 -1.449 3.331c-.026 0-.132-.015-.157-.016a.991.991 0 0 0 -1.022 1.249l-.85.567-4.065-2.71a10.377 10.377 0 0 1 5.265-4.69 1 1 0 1 0 -.744-1.858 12.363 12.363 0 0 0 -3.179 1.88 11.639 11.639 0 0 0 -.307-3.663 1 1 0 1 0 -1.94.486 9.624 9.624 0 0 1 -.806 6.79.993.993 0 0 0 -.779.135l-3.382 2.255a2.981 2.981 0 0 1 .975-1.671 1 1 0 0 0 0-1.5 2.959 2.959 0 0 1 -1.038-2.254 3.007 3.007 0 0 1 1.76-2.723zm-3.643 9.443-.117.08-5.445-3.63a.982.982 0 0 0 -.282-.128l2.79-1.61zm-16.617-14.78a7 7 0 0 1 9.562 2.56l.5.865-3.463 2a1 1 0 0 0 1 1.733l3.464-2 1.5 2.6-3.464 2a1 1 0 0 0 .293 1.84l-4.447 2.962-6.045-10.463a3 3 0 0 1 1.1-4.097zm-.5 13.929 4.445 2.963a1 1 0 0 0 1.11 0l5.445-3.632 5.445 3.63a1 1 0 0 0 1.11 0l5.445-3.63 5.445 3.63a1 1 0 0 0 1.11 0l4.445-2.961v41.131h-15.773a15.709 15.709 0 0 0 2.773-8 6.006 6.006 0 0 0 -6-6 5.848 5.848 0 0 0 -2.105.4 7.805 7.805 0 0 0 -.355-1.4h2.46a5.006 5.006 0 0 0 5-5 1 1 0 0 0 -1-1h-3a4.993 4.993 0 0 0 -4.8 3.667 7.711 7.711 0 0 0 -1.648-1.5 1 1 0 1 0 -1.11 1.664 5.721 5.721 0 0 1 2.4 3.478 5.857 5.857 0 0 0 -1.842-.309 6 6 0 0 0 -1 .09v-1.261a7.778 7.778 0 0 0 -2.293-5.536 5.789 5.789 0 0 1 -1.707-4.122v-4.171a1 1 0 0 0 1-1v-4a1 1 0 0 0 -1-1h-4zm13.171 24.131a3.006 3.006 0 0 1 2.829-2h1.829a3.006 3.006 0 0 1 -2.829 2zm-10.1 10h-9.071v-5h10.54a5.969 5.969 0 0 0 -1.54 4 8.407 8.407 0 0 0 .074 1zm-6.071-26h6v2h-6zm-1.293 13.707a7.778 7.778 0 0 0 2.293-5.536v-4.171h4v4.171a7.774 7.774 0 0 0 2.293 5.536 5.789 5.789 0 0 1 1.707 4.122v1.171h-12v-1.171a5.789 5.789 0 0 1 1.707-4.122zm-1.707 14.293h9.473a15.043 15.043 0 0 0 2.3 5h-11.773zm18.6 4.18a1 1 0 0 0 -1.206 0 3.958 3.958 0 0 1 -2.394.82c-1.8 0-4-5.356-4-8a4 4 0 0 1 4-4 3.958 3.958 0 0 1 2.4.82 1 1 0 0 0 1.206 0 3.958 3.958 0 0 1 2.394-.82 4 4 0 0 1 4 4c0 2.644-2.2 8-4 8a3.958 3.958 0 0 1 -2.4-.82z"/><path d="m53 39a1 1 0 0 0 -1 1v4a1 1 0 0 0 2 0v-4a1 1 0 0 0 -1-1z"/><path d="m32 29h9a1 1 0 0 0 0-2h-9a1 1 0 0 0 0 2z"/><path d="m41 32h-6a1 1 0 0 0 0 2h6a1 1 0 0 0 0-2z"/></g></g></g></svg>